<?xml version="1.0" encoding="UTF-8"?>
<svg width="151px" height="28px" viewBox="0 0 151 28" version="1.1" xmlns="http://www.w3.org/2000/svg" xmlns:xlink="http://www.w3.org/1999/xlink">
    <title>ColorFull</title>
    <g id="Final" stroke="none" stroke-width="1" fill="none" fill-rule="evenodd">
        <path d="M12.11,27.65 C13.9533333,27.65 15.575,27.4633333 16.975,27.09 C18.375,26.7166667 19.46,26.2966667 20.23,25.83 L20.23,25.83 L18.725,21.455 C18.4216667,21.595 18.0833333,21.7466667 17.71,21.91 C17.3366667,22.0733333 16.905,22.2191667 16.415,22.3475 C15.925,22.4758333 15.365,22.5866667 14.735,22.68 C14.105,22.7733333 13.3933333,22.82 12.6,22.82 C11.34,22.82 10.2666667,22.6158333 9.38,22.2075 C8.49333333,21.7991667 7.77583333,21.245 7.2275,20.545 C6.67916667,19.845 6.2825,19.0108333 6.0375,18.0425 C5.7925,17.0741667 5.67,16.03 5.67,14.91 C5.67,13.51 5.85666667,12.32 6.23,11.34 C6.60333333,10.36 7.09916667,9.56083333 7.7175,8.9425 C8.33583333,8.32416667 9.0475,7.875 9.8525,7.595 C10.6575,7.315 11.48,7.175 12.32,7.175 C13.58,7.175 14.7058333,7.315 15.6975,7.595 C16.6891667,7.875 17.5583333,8.21333333 18.305,8.61 L18.305,8.61 L19.88,4.2 C19.6933333,4.08333333 19.39,3.92 18.97,3.71 C18.55,3.5 18.025,3.29583333 17.395,3.0975 C16.765,2.89916667 16.03,2.72416667 15.19,2.5725 C14.35,2.42083333 13.4166667,2.345 12.39,2.345 C10.6166667,2.345 8.97166667,2.625 7.455,3.185 C5.93833333,3.745 4.63166667,4.5675 3.535,5.6525 C2.43833333,6.7375 1.575,8.0675 0.945,9.6425 C0.315,11.2175 2.27373675e-13,13.0083333 2.27373675e-13,15.015 C2.27373675e-13,19.0516667 1.0325,22.1666667 3.0975,24.36 C5.1625,26.5533333 8.16666667,27.65 12.11,27.65 Z M31.15,27.65 C32.5266667,27.65 33.7691667,27.4166667 34.8775,26.95 C35.9858333,26.4833333 36.9366667,25.8241667 37.73,24.9725 C38.5233333,24.1208333 39.13,23.0941667 39.55,21.8925 C39.97,20.6908333 40.18,19.3666667 40.18,17.92 C40.18,16.4733333 39.9583333,15.155 39.515,13.965 C39.0716667,12.775 38.4533333,11.76 37.66,10.92 C36.8666667,10.08 35.9158333,9.42666667 34.8075,8.96 C33.6991667,8.49333333 32.48,8.26 31.15,8.26 C29.8433333,8.26 28.6358333,8.49333333 27.5275,8.96 C26.4191667,9.42666667 25.4625,10.08 24.6575,10.92 C23.8525,11.76 23.2225,12.775 22.7675,13.965 C22.3125,15.155 22.085,16.4733333 22.085,17.92 C22.085,19.3666667 22.3066667,20.6908333 22.75,21.8925 C23.1933333,23.0941667 23.8116667,24.1208333 24.605,24.9725 C25.3983333,25.8241667 26.3491667,26.4833333 27.4575,26.95 C28.5658333,27.4166667 29.7966667,27.65 31.15,27.65 Z M31.15,23.17 C29.96,23.17 29.0383333,22.6975 28.385,21.7525 C27.7316667,20.8075 27.405,19.53 27.405,17.92 C27.405,16.31 27.7316667,15.0441667 28.385,14.1225 C29.0383333,13.2008333 29.96,12.74 31.15,12.74 C32.34,12.74 33.2558333,13.2008333 33.8975,14.1225 C34.5391667,15.0441667 34.86,16.31 34.86,17.92 C34.86,19.53 34.5391667,20.8075 33.8975,21.7525 C33.2558333,22.6975 32.34,23.17 31.15,23.17 Z M51.555,27.51 L52.29,23.205 C51.66,23.1583333 51.1583333,23.0533333 50.785,22.89 C50.4116667,22.7266667 50.1258333,22.5166667 49.9275,22.26 C49.7291667,22.0033333 49.595,21.6883333 49.525,21.315 C49.455,20.9416667 49.42,20.5216667 49.42,20.055 L49.42,20.055 L49.42,0 L44.205,0.84 L44.205,21.105 C44.205,22.085 44.3041667,22.9658333 44.5025,23.7475 C44.7008333,24.5291667 45.0741667,25.1941667 45.6225,25.7425 C46.1708333,26.2908333 46.9175,26.7166667 47.8625,27.02 C48.8075,27.3233333 50.0383333,27.4866667 51.555,27.51 L51.555,27.51 Z M63.455,27.65 C64.8316667,27.65 66.0741667,27.4166667 67.1825,26.95 C68.2908333,26.4833333 69.2416667,25.8241667 70.035,24.9725 C70.8283333,24.1208333 71.435,23.0941667 71.855,21.8925 C72.275,20.6908333 72.485,19.3666667 72.485,17.92 C72.485,16.4733333 72.2633333,15.155 71.82,13.965 C71.3766667,12.775 70.7583333,11.76 69.965,10.92 C69.1716667,10.08 68.2208333,9.42666667 67.1125,8.96 C66.0041667,8.49333333 64.785,8.26 63.455,8.26 C62.1483333,8.26 60.9408333,8.49333333 59.8325,8.96 C58.7241667,9.42666667 57.7675,10.08 56.9625,10.92 C56.1575,11.76 55.5275,12.775 55.0725,13.965 C54.6175,15.155 54.39,16.4733333 54.39,17.92 C54.39,19.3666667 54.6116667,20.6908333 55.055,21.8925 C55.4983333,23.0941667 56.1166667,24.1208333 56.91,24.9725 C57.7033333,25.8241667 58.6541667,26.4833333 59.7625,26.95 C60.8708333,27.4166667 62.1016667,27.65 63.455,27.65 Z M63.455,23.17 C62.265,23.17 61.3433333,22.6975 60.69,21.7525 C60.0366667,20.8075 59.71,19.53 59.71,17.92 C59.71,16.31 60.0366667,15.0441667 60.69,14.1225 C61.3433333,13.2008333 62.265,12.74 63.455,12.74 C64.645,12.74 65.5608333,13.2008333 66.2025,14.1225 C66.8441667,15.0441667 67.165,16.31 67.165,17.92 C67.165,19.53 66.8441667,20.8075 66.2025,21.7525 C65.5608333,22.6975 64.645,23.17 63.455,23.17 Z M81.725,27.16 L81.725,13.09 C81.9583333,13.02 82.3025,12.9558333 82.7575,12.8975 C83.2125,12.8391667 83.6033333,12.81 83.93,12.81 C84.6533333,12.81 85.33,12.8741667 85.96,13.0025 C86.59,13.1308333 87.1383333,13.2533333 87.605,13.37 L87.605,13.37 L88.48,9.065 C88.2,8.94833333 87.8616667,8.84916667 87.465,8.7675 C87.0683333,8.68583333 86.6716667,8.61583333 86.275,8.5575 C85.8783333,8.49916667 85.4816667,8.4525 85.085,8.4175 C84.6883333,8.3825 84.35,8.365 84.07,8.365 C82.5066667,8.365 81.0891667,8.51083333 79.8175,8.8025 C78.5458333,9.09416667 77.4433333,9.40333333 76.51,9.73 L76.51,9.73 L76.51,27.16 L81.725,27.16 Z M97.09,27.16 L97.09,17.15 L106.68,17.15 L106.68,12.565 L97.09,12.565 L97.09,7.49 L107.87,7.49 L107.87,2.905 L91.63,2.905 L91.63,27.16 L97.09,27.16 Z M118.545,27.58 C120.085,27.58 121.555,27.4691667 122.955,27.2475 C124.355,27.0258333 125.498333,26.7866667 126.385,26.53 L126.385,26.53 L126.385,8.75 L121.17,8.75 L121.17,22.96 C120.843333,23.0066667 120.47,23.0475 120.05,23.0825 C119.63,23.1175 119.233333,23.135 118.86,23.135 C117.646667,23.135 116.818333,22.7616667 116.375,22.015 C115.931667,21.2683333 115.71,20.055 115.71,18.375 L115.71,18.375 L115.71,8.75 L110.495,8.75 L110.495,19.005 C110.495,20.265 110.623333,21.42 110.88,22.47 C111.136667,23.52 111.568333,24.4241667 112.175,25.1825 C112.781667,25.9408333 113.604167,26.53 114.6425,26.95 C115.680833,27.37 116.981667,27.58 118.545,27.58 Z M138.635,27.51 L139.37,23.205 C138.74,23.1583333 138.238333,23.0533333 137.865,22.89 C137.491667,22.7266667 137.205833,22.5166667 137.0075,22.26 C136.809167,22.0033333 136.675,21.6883333 136.605,21.315 C136.535,20.9416667 136.5,20.5216667 136.5,20.055 L136.5,20.055 L136.5,0 L131.285,0.84 L131.285,21.105 C131.285,22.085 131.384167,22.9658333 131.5825,23.7475 C131.780833,24.5291667 132.154167,25.1941667 132.7025,25.7425 C133.250833,26.2908333 133.9975,26.7166667 134.9425,27.02 C135.8875,27.3233333 137.118333,27.4866667 138.635,27.51 L138.635,27.51 Z M149.695,27.51 L150.43,23.205 C149.8,23.1583333 149.298333,23.0533333 148.925,22.89 C148.551667,22.7266667 148.265833,22.5166667 148.0675,22.26 C147.869167,22.0033333 147.735,21.6883333 147.665,21.315 C147.595,20.9416667 147.56,20.5216667 147.56,20.055 L147.56,20.055 L147.56,0 L142.345,0.84 L142.345,21.105 C142.345,22.085 142.444167,22.9658333 142.6425,23.7475 C142.840833,24.5291667 143.214167,25.1941667 143.7625,25.7425 C144.310833,26.2908333 145.0575,26.7166667 146.0025,27.02 C146.9475,27.3233333 148.178333,27.4866667 149.695,27.51 L149.695,27.51 Z" id="ColorFull" fill="#D77967" fill-rule="nonzero"></path>
    </g>
</svg>