<?xml version="1.0" encoding="UTF-8"?>
<svg width="960px" height="384px" viewBox="0 0 960 384" version="1.1" xmlns="http://www.w3.org/2000/svg" xmlns:xlink="http://www.w3.org/1999/xlink">
    <title>Group 3</title>
    <defs>
        <filter id="filter-1">
            <feColorMatrix in="SourceGraphic" type="matrix" values="0 0 0 0 0.454902 0 0 0 0 0.541176 0 0 0 0 0.474510 0 0 0 0.258577 0"></feColorMatrix>
        </filter>
        <polygon id="path-2" points="0 0.629775089 959.225449 0.629775089 959.225449 384 0 384"></polygon>
    </defs>
    <g id="Final" stroke="none" stroke-width="1" fill="none" fill-rule="evenodd" opacity="0.683547247">
        <g id="Group-60" transform="translate(-270.000000, -4087.000000)" filter="url(#filter-1)">
            <g transform="translate(270.000000, 4087.000000)" id="Group-3">
                <mask id="mask-3" fill="white">
                    <use xlink:href="#path-2"></use>
                </mask>
                <g id="Clip-2"></g>
                <path d="M704.980994,353.111517 L704.66633,353.733152 L705.175149,353.813165 L704.980994,353.111517 Z M381.097208,322.220573 L381.398483,321.642021 L380.923138,321.555854 L381.097208,322.220573 Z M867.74972,171.963424 C867.53548,172.08652 867.327935,172.203461 867.12039,172.326557 C867.301155,172.511201 867.475225,172.812786 867.662685,172.837405 C867.856839,172.868179 868.071079,172.628142 868.278624,172.505046 L867.74972,171.963424 Z M862.045584,184.833112 C862.674913,185.387044 863.009663,185.245483 862.956103,184.402276 C862.942713,184.285335 862.514233,184.137619 862.286603,184.162239 C862.192873,184.174548 862.125924,184.599229 862.045584,184.833112 L862.045584,184.833112 Z M862.641438,328.584637 L862.152703,328.910841 L862.648133,329.218581 L862.641438,328.584637 Z M838.231485,339.158584 C838.46581,339.269371 838.740305,339.534027 838.93446,339.454015 C839.704384,339.121655 839.731164,338.592342 838.98802,338.143042 C838.807255,338.044565 838.46581,338.210745 838.29174,338.395389 C838.18462,338.506175 838.244875,338.893928 838.231485,339.158584 L838.231485,339.158584 Z M780.078756,362.983818 C779.837737,362.934579 779.569937,362.774554 779.342307,362.854567 C779.168237,362.92227 779.047727,363.266938 778.907132,363.494666 C779.114677,363.673155 779.315527,363.962431 779.536462,364.005515 C779.750702,364.042443 780.018501,363.894728 780.205961,363.716239 C780.266216,363.660846 780.132316,363.242319 780.078756,362.983818 L780.078756,362.983818 Z M738.663516,354.016273 L739.306235,353.659295 L738.650126,353.302316 L738.663516,354.016273 Z M581.605621,25.3376069 C581.779691,25.6022634 581.987236,26.1254214 582.114441,26.0946474 C582.596481,25.983861 583.045045,25.6822758 583.500305,25.460703 C583.33293,25.1960465 583.13208,24.6790433 582.99818,24.7098173 C582.522836,24.8206037 582.074271,25.1098793 581.605621,25.3376069 L581.605621,25.3376069 Z M413.233185,248.166011 L413.755395,248.646085 L413.889295,247.987522 L413.233185,248.166011 Z M386.379559,292.720613 C386.259049,292.455957 386.172014,292.03743 385.991249,291.945108 C385.770314,291.840477 385.3887,291.877405 385.234715,292.068204 C384.75937,292.689839 384.953525,293.182223 385.716754,293.231461 C385.937689,293.249926 386.158624,292.905257 386.379559,292.720613 L386.379559,292.720613 Z M380.233553,29.9537075 L380.166603,30.6491999 L380.849493,30.4030079 L380.233553,29.9537075 Z M311.455867,10.6584073 L311.998161,11.0892434 L312.091891,10.4614537 L311.455867,10.6584073 Z M288.974073,289.840166 C289.154838,290.04943 289.302127,290.387944 289.482892,290.412563 C289.677047,290.437182 289.897982,290.17868 290.098832,290.04943 C289.944847,289.834011 289.797557,289.483188 289.623487,289.446259 C289.442722,289.403175 289.215093,289.673987 288.974073,289.840166 L288.974073,289.840166 Z M276.461127,292.271313 C276.548161,291.982037 276.635196,291.698916 276.715536,291.42195 C276.528076,291.317318 276.340617,291.218842 276.146462,291.120365 C276.079512,291.40964 275.945612,291.692761 275.959002,291.969727 C275.965697,292.086669 276.287057,292.172836 276.461127,292.271313 L276.461127,292.271313 Z M263.024271,272.779059 C262.803336,272.680582 262.582401,272.483628 262.368161,272.508248 C262.274432,272.514402 262.207482,272.969858 262.133837,273.222204 C262.361466,273.326836 262.582401,273.505325 262.803336,273.486861 C262.890371,273.480706 262.957321,273.031406 263.024271,272.779059 L263.024271,272.779059 Z M246.634923,25.3376069 C246.106018,24.8206037 245.811438,24.9560093 245.858303,25.7315142 C245.864998,25.8423006 246.233223,25.983861 246.427378,25.9653966 C246.514413,25.953087 246.561278,25.5591798 246.634923,25.3376069 L246.634923,25.3376069 Z M233.465867,275.234824 C233.365442,274.994787 233.291797,274.619344 233.131117,274.545487 C232.936962,274.459319 232.602212,274.508558 232.461618,274.680892 C232.026443,275.210205 232.207208,275.634886 232.896792,275.69028 C233.084252,275.702589 233.278407,275.394849 233.465867,275.234824 L233.465867,275.234824 Z M182.128643,20.1306456 C181.372109,20.1306456 181.177954,20.5060884 181.626518,21.1461877 C181.706858,21.2569741 182.075083,20.9984725 182.309408,20.9061505 L182.128643,20.1306456 Z M93.5337705,267.910611 L92.937916,267.418227 L92.824101,268.132184 L93.5337705,267.910611 Z M58.3114004,211.015634 C57.494611,210.99717 57.2870661,211.372612 57.7824958,211.994247 C57.8829207,212.123498 58.2578404,211.852687 58.5122502,211.76652 C58.4453003,211.514173 58.3783503,211.267981 58.3114004,211.015634 L58.3114004,211.015634 Z M284.180456,9.89521204 C283.638161,9.79673523 283.075782,9.77827082 282.540182,9.87059283 C282.406282,9.89521204 282.319247,10.4306797 282.212127,10.7261101 C282.720947,10.9538378 283.229767,11.2615778 283.758671,11.3662094 C283.952826,11.409293 284.294271,11.040005 284.401391,10.7507293 C284.475036,10.5476209 284.294271,9.91367644 284.180456,9.89521204 L284.180456,9.89521204 Z M305.758426,25.2452849 L304.975111,25.3868454 L305.510711,25.768443 L305.758426,25.2452849 Z M138.497359,316.859741 C138.738379,317.142862 138.952619,317.598317 139.140078,317.586008 C139.655593,317.536769 140.151023,317.284423 140.653147,317.105933 C140.479077,316.841277 140.284923,316.342738 140.124243,316.361202 C139.608728,316.416596 139.093213,316.662788 138.497359,316.859741 L138.497359,316.859741 Z M468.687831,246.258023 C469.37072,246.479595 469.65191,246.264177 469.390805,245.710245 C469.323856,245.56253 468.948936,245.642543 468.728001,245.679471 C468.694526,245.691781 468.701221,246.048759 468.687831,246.258023 L468.687831,246.258023 Z M330.121514,292.782161 C330.315669,293.016043 330.476348,293.379177 330.703978,293.471499 C331.721618,293.88387 332.799512,293.483808 332.873157,292.677529 C332.893242,292.419028 332.658917,291.877405 332.531712,291.871251 C331.788568,291.834322 331.038728,291.89587 330.302279,291.994347 C330.215244,292.006656 330.181769,292.505195 330.121514,292.782161 L330.121514,292.782161 Z M795.56428,337.693742 C795.062156,338.05072 794.553336,338.401544 794.051212,338.764677 C794.533251,339.133965 795.015291,339.804838 795.504025,339.804838 C796.00615,339.798683 796.51497,339.158584 797.023789,338.801606 C796.54175,338.432318 796.05971,338.06303 795.56428,337.693742 L795.56428,337.693742 Z M715.880447,353.03766 C715.626037,353.228459 715.364932,353.413103 715.110522,353.597747 C715.324762,353.850093 715.512222,354.25631 715.759937,354.336323 C716.576726,354.613289 716.958341,354.194762 716.690541,353.33309 C716.623591,353.123827 716.161636,353.129982 715.880447,353.03766 L715.880447,353.03766 Z M474.907482,27.0424867 C474.679852,27.25175 474.378577,27.3994652 474.264762,27.6764312 C474.191117,27.8487656 474.445527,28.4888649 474.519172,28.4765553 C475.027992,28.3903881 475.530116,28.1934345 476.032241,28.0334096 C475.931816,27.7502888 475.884951,27.3379172 475.717576,27.2086664 C475.496641,27.0424867 475.181976,27.0917251 474.907482,27.0424867 L474.907482,27.0424867 Z M510.544941,348.144593 C510.290532,348.341547 509.922307,348.446178 509.801797,348.735454 C509.446962,349.554043 510.605196,351.006575 511.488936,350.803467 C511.716566,350.741919 511.97767,350.360321 512.091485,350.040272 C512.49988,348.877014 511.796906,348.033807 510.544941,348.144593 L510.544941,348.144593 Z M249.58072,274.13927 L249.908775,274.779369 L250.230135,274.046948 L249.58072,274.13927 Z M579.490003,335.582645 C579.248983,335.798063 579.007963,336.019636 578.760248,336.228899 C578.961098,336.505865 579.128473,336.875153 579.369493,337.016714 C579.617208,337.158274 579.965347,337.164429 580.233147,337.065952 C580.500947,336.967475 580.728577,336.66589 580.976292,336.456627 C580.480862,336.161196 579.985432,335.871921 579.490003,335.582645 L579.490003,335.582645 Z M120.802486,280.066343 C121.003336,280.250987 121.204186,280.564882 121.425121,280.60181 C121.666141,280.644894 121.933941,280.423321 122.195045,280.324844 C121.9875,280.134046 121.793346,279.813996 121.572411,279.783222 C121.324696,279.740138 121.056896,279.955556 120.802486,280.066343 L120.802486,280.066343 Z M233.271712,317.05054 C233.740362,317.210565 234.215706,317.413673 234.697746,317.499841 C234.784781,317.51215 234.918681,317.044385 235.039191,316.798193 C234.563846,316.632014 234.095196,316.43506 233.619852,316.355048 C233.519427,316.336583 233.385527,316.810503 233.271712,317.05054 L233.271712,317.05054 Z M68.8627129,245.513292 C68.1128735,245.236326 67.7848187,245.464053 68.0526185,246.085688 C68.1262635,246.251868 68.5480482,246.171855 68.802458,246.128772 C68.835933,246.122617 68.842628,245.72871 68.8627129,245.513292 L68.8627129,245.513292 Z M216.480664,292.517505 C216.976093,292.702149 217.464828,292.917567 217.966953,293.009889 C218.047293,293.028353 218.187888,292.505195 218.301703,292.228229 C217.806273,292.04974 217.317538,291.828167 216.815414,291.72969 C216.735074,291.711226 216.601174,292.240539 216.480664,292.517505 L216.480664,292.517505 Z M130.878454,311.714328 C130.0148,311.917436 129.96124,312.305189 130.757944,312.72987 C130.911929,312.809882 131.186424,312.465214 131.400664,312.317498 C131.233289,312.120545 131.052524,311.917436 130.878454,311.714328 L130.878454,311.714328 Z M841.712883,134.536081 C840.963043,134.357591 840.460919,134.71457 840.407359,135.613171 C840.387274,135.865518 840.768889,136.40714 840.963043,136.39483 C841.518728,136.364056 842.241788,136.351747 842.576537,135.902446 C842.931372,135.428527 842.462722,134.739189 841.712883,134.536081 L841.712883,134.536081 Z M151.04378,29.7075154 C150.81615,29.8798499 150.581825,30.0583391 150.36089,30.2368283 C150.541655,30.4830203 150.69564,30.8707728 150.903185,30.9384756 C151.639635,31.1600484 151.974384,30.772296 151.746754,30.0152555 C151.6865,29.8183018 151.2848,29.8059922 151.04378,29.7075154 L151.04378,29.7075154 Z M450.939398,316.712026 L450.557784,317.099779 L451.274148,317.142862 L450.939398,316.712026 Z M596.689446,351.086588 C597.16479,351.406638 597.62005,351.942105 598.095395,351.966724 C598.577434,352.003653 599.086254,351.535888 599.574989,351.283541 C599.106339,350.975801 598.637689,350.458798 598.162345,350.421869 C597.687,350.39725 597.184875,350.846551 596.689446,351.086588 L596.689446,351.086588 Z M878.829937,213.809913 C879.010702,213.976093 879.184771,214.22844 879.378926,214.271523 C879.599861,214.314607 879.840881,214.166892 880.075206,214.099189 C879.887746,213.933009 879.713676,213.668353 879.506131,213.619115 C879.298586,213.576031 879.057567,213.736056 878.829937,213.809913 L878.829937,213.809913 Z M824.92853,355.585747 C824.21886,355.259543 823.91089,355.49958 824.145215,356.238156 C824.185385,356.367407 824.613865,356.330478 824.84819,356.26893 C824.908445,356.250466 824.90175,355.81963 824.92853,355.585747 L824.92853,355.585747 Z M822.826301,53.6989285 C822.357652,54.0743713 821.902392,54.455969 821.440437,54.8314118 C821.895697,55.2130095 822.357652,55.8838827 822.819606,55.8838827 C823.281561,55.8838827 823.750211,55.2191643 824.21886,54.8375666 C823.750211,54.4621238 823.288256,54.0805261 822.826301,53.6989285 L822.826301,53.6989285 Z M338.717888,257.995228 C338.215763,257.896751 337.720333,257.749036 337.211514,257.724416 C337.050834,257.718262 336.883459,258.013692 336.709389,258.173717 C337.198124,258.259884 337.700248,258.389135 338.188983,258.413754 C338.363053,258.419909 338.543818,258.142943 338.717888,257.995228 L338.717888,257.995228 Z M154.893402,262.949842 C154.638992,262.875984 154.377888,262.709805 154.136868,262.746734 C153.895848,262.783662 153.668218,263.029855 153.440588,263.189879 C153.701693,263.220653 153.976188,263.306821 154.230598,263.269892 C154.458228,263.232963 154.679162,263.060629 154.893402,262.949842 L154.893402,262.949842 Z M474.425442,311.369659 C473.849672,311.455826 473.280598,311.708173 472.711523,311.898972 C473.227038,312.212867 473.722467,312.692941 474.264762,312.816037 C475.074856,313.012991 475.469861,312.502142 475.215451,311.745102 C475.128416,311.505065 474.686547,311.326575 474.425442,311.369659 L474.425442,311.369659 Z M202.394394,266.913534 C202.139984,266.913534 201.832014,266.821212 201.564214,266.931998 C201.028615,267.147416 200.506405,267.467466 199.984195,267.744432 C200.45954,268.119875 200.9148,268.556866 201.410229,268.858451 C201.651249,269.000011 202.006084,268.981547 202.267189,268.87076 C202.802788,268.649188 203.318303,268.316828 203.833818,268.027553 C203.365168,267.664419 202.903213,267.307441 202.394394,266.913534 L202.394394,266.913534 Z M244.251504,333.391536 C243.970314,333.403846 243.689125,333.373072 243.421325,333.453084 C243.166915,333.526942 242.79869,333.643883 242.711655,333.88392 C242.49072,334.4994 242.83886,335.004094 243.568615,334.997939 C244.084129,334.997939 244.773714,334.942546 245.061599,334.517864 C245.409738,334.007016 244.981259,333.43462 244.251504,333.391536 L244.251504,333.391536 Z M871.672987,328.043014 C871.338237,328.535398 869.818473,327.655262 870.655347,329.440154 C870.822722,329.784823 872.101466,329.200117 872.858001,329.046247 C872.757576,328.775435 872.697321,328.393838 872.523251,328.264587 C872.302316,328.092253 871.994347,328.110717 871.672987,328.043014 L871.672987,328.043014 Z M810.340135,337.42293 C810.045555,337.515252 809.7175,337.527562 809.463091,337.724516 C809.208681,337.921469 808.900711,338.290757 808.887321,338.616962 C808.867236,338.924702 809.135036,339.361693 809.369361,339.583265 C809.596991,339.810993 809.93174,339.90947 810.233015,339.940244 C811.150229,340.032566 812.147784,340.05103 812.656603,338.83238 C812.917708,338.20459 811.652354,337.410621 810.340135,337.42293 L810.340135,337.42293 Z M705.181844,348.403095 C704.632855,348.341547 704.07717,348.212296 703.52818,348.23076 C703.280466,348.24307 703.039446,348.544655 702.791731,348.71699 C703.561655,348.864705 704.33158,349.00011 705.114894,349.141671 C705.128284,348.895479 705.155064,348.649287 705.181844,348.403095 L705.181844,348.403095 Z M644.511797,324.233192 C644.257387,324.054703 644.009672,323.826976 643.741873,323.728499 C643.460683,323.617712 643.146018,323.580784 642.858133,323.611558 C642.570248,323.636177 642.168549,323.660796 642.041344,323.900833 C641.713289,324.479385 642.061429,324.93484 642.891608,324.836363 C643.440598,324.774815 643.976197,324.442456 644.511797,324.233192 L644.511797,324.233192 Z M799.889247,55.6069167 C800.612307,55.8592635 801.382231,56.3270284 802.145461,56.3147188 C802.567246,56.308564 802.982335,55.4961303 803.397425,55.0529846 C803.022505,54.5606006 802.64089,53.6619997 802.259276,53.6558449 C801.489351,53.6558449 800.712732,54.1174549 799.962892,54.4682786 C799.875857,54.4990526 799.922722,55.0283654 799.889247,55.6069167 L799.889247,55.6069167 Z M568.891825,332.431387 C568.275886,332.511399 567.934441,332.449851 567.680031,332.616031 C567.164517,332.9607 566.695867,333.43462 566.200437,333.846991 C566.649002,334.34553 567.057397,335.182583 567.552826,335.274905 C568.72445,335.490323 569.94294,335.465704 571.121259,335.293369 C571.429229,335.250286 571.710418,334.320911 571.884488,333.74236 C571.924658,333.600799 571.516263,333.040712 571.268549,332.973009 C570.384809,332.702198 569.48768,332.554483 568.891825,332.431387 L568.891825,332.431387 Z M612.884639,333.570025 C611.157331,333.539251 610.300371,334.117802 611.003346,334.634806 C611.498775,334.997939 612.128105,335.164119 612.697179,335.170273 C614.237028,335.194893 615.281448,334.382459 614.611948,333.994706 C614.096433,333.686966 613.467104,333.699276 612.884639,333.570025 L612.884639,333.570025 Z M673.099427,321.494306 C673.286887,321.765117 673.434177,322.202108 673.648416,322.269811 C674.826736,322.682183 676.01175,322.860672 677.109729,321.869749 C676.908879,321.586628 676.721419,321.106554 676.500484,321.069625 C675.62344,320.928065 674.733006,320.872671 673.855961,320.897291 C673.601551,320.903445 673.353837,321.285043 673.099427,321.494306 L673.099427,321.494306 Z M686.201533,323.39614 C685.973903,323.494616 685.150418,323.863904 684.333629,324.239347 C684.956263,325.353366 685.900258,325.248735 686.777302,325.390295 C687.078577,325.439533 687.413327,325.574939 687.681127,325.457998 C688.223421,325.211806 688.718851,324.817899 689.24106,324.491694 C688.745631,324.122406 688.270286,323.70388 687.754771,323.420759 C687.493667,323.273044 687.152222,323.39614 686.201533,323.39614 L686.201533,323.39614 Z M844.317236,338.900083 C845.683015,340.143352 847.122439,340.186436 848.608728,339.60173 C848.816273,339.521717 849.130938,338.992405 849.084073,338.856999 C848.976953,338.530794 848.702458,338.149197 848.454743,338.087649 C847.022014,337.687587 845.589285,337.490633 844.317236,338.900083 L844.317236,338.900083 Z M813.245763,353.936261 C814.591457,354.176298 815.702826,354.477883 816.814195,354.514812 C817.229285,354.520967 817.657765,353.917796 818.07955,353.591592 C817.83853,353.388483 817.6109,353.02535 817.36988,353.000731 C816.050966,352.889944 814.678492,352.354477 813.245763,353.936261 L813.245763,353.936261 Z M462.073176,316.342738 C461.550966,316.527382 460.975196,316.57662 460.506547,316.902825 C459.903997,317.339816 461.028756,318.275345 462.28072,318.12763 C462.809625,318.072237 463.39209,317.844509 463.827264,317.450602 C464.389644,316.933599 463.53938,316.318119 462.073176,316.342738 L462.073176,316.342738 Z M745.271476,322.93453 C744.381042,323.008387 743.771797,322.946839 743.222807,323.143793 C742.687208,323.334592 742.205168,323.796202 741.696348,324.14087 C742.124828,324.565552 742.533223,325.310283 742.988483,325.353366 C744.421212,325.494927 745.853941,325.402605 747.293364,325.304128 C747.507604,325.291818 747.802184,324.824053 747.869134,324.504004 C747.909304,324.270121 747.654894,323.753118 747.460739,323.67926 C746.650645,323.334592 745.813771,323.106864 745.271476,322.93453 L745.271476,322.93453 Z M128.910126,317.813735 C130.510229,317.813735 131.152949,317.967605 131.708634,317.758342 C132.190673,317.586008 132.585678,316.982837 133.014158,316.570466 C132.505338,316.201178 131.996518,315.530304 131.481004,315.517995 C130.289295,315.493376 129.09089,315.758032 127.905876,315.979605 C127.631381,316.028843 127.269852,316.28119 127.162732,316.570466 C126.941797,317.179791 127.323412,317.641401 128.100031,317.746033 C128.702581,317.826045 129.311825,317.838355 128.910126,317.813735 L128.910126,317.813735 Z M800.244082,312.022068 C799.701788,311.197325 799.219748,309.80634 798.670758,309.750946 C797.592864,309.65247 796.4748,310.274105 795.390211,310.686476 C795.189361,310.766489 794.975121,311.240408 794.934951,311.572767 C794.901476,311.825114 795.062156,312.305189 795.222836,312.403666 C796.56853,313.160706 797.941004,313.739257 799.400513,313.031455 C799.641533,312.920669 799.808907,312.551381 800.244082,312.022068 L800.244082,312.022068 Z M798.336008,326.928995 C798.275754,327.310593 798.188719,327.679881 798.141854,328.061479 C798.021344,328.997008 798.356093,329.483237 799.112628,329.427844 C799.387123,329.403225 799.695093,329.310903 799.922722,329.113949 C801.020702,328.141491 801.114432,326.565862 801.241636,325.033317 C801.335366,323.906988 800.438237,322.92222 799.527718,323.279198 C799.038983,323.469997 798.469908,324.048548 798.295839,324.639409 C798.094989,325.291818 798.302534,326.159645 798.336008,326.928995 L798.336008,326.928995 Z M91.0767073,279.943247 C88.4254891,278.232212 85.854611,278.022949 83.2167828,278.663048 C82.942288,278.730751 82.6744882,278.946169 82.4468584,279.173897 C82.2125335,279.413934 81.9313437,279.715519 81.8777838,280.054033 C81.8443088,280.263296 82.1455836,280.743371 82.3531284,280.835693 C85.1918064,281.986641 85.1918064,281.974331 91.0767073,279.943247 L91.0767073,279.943247 Z M793.609342,32.3048413 C791.768218,31.7447545 790.355574,31.1908224 788.91615,30.9446304 C788.46089,30.864618 787.717746,31.449324 787.463336,32.0155657 C787.128586,32.7726062 787.597236,33.4804083 788.373856,33.4680987 C789.987349,33.4496342 791.654403,33.8127675 793.609342,32.3048413 L793.609342,32.3048413 Z M579.309238,262.814436 C582.228256,264.457768 584.524639,264.611638 586.841108,264.051551 C587.189247,263.977694 587.443657,263.202189 587.744932,262.746734 C587.530692,262.494387 587.343232,262.08817 587.095517,262.020467 C584.785744,261.386523 582.482666,261.429606 579.309238,262.814436 L579.309238,262.814436 Z M364.03836,322.079012 C367.606792,323.033006 370.438775,323.716189 373.424743,321.506616 C370.371825,320.811123 367.553232,320.14025 364.03836,322.079012 L364.03836,322.079012 Z M126.941797,275.382539 C129.686745,276.176509 132.404913,276.60119 135.136471,275.69028 C135.283761,275.634886 135.451136,274.976323 135.404271,274.656273 C135.350711,274.330069 135.022656,273.81922 134.841891,273.837685 C132.418303,274.046948 129.98802,274.323914 127.571127,274.643963 C127.363582,274.668583 127.182817,275.087109 126.941797,275.382539 L126.941797,275.382539 Z M832.453704,338.746213 C829.092817,337.145964 825.537774,337.195203 821.962647,337.829147 C821.708237,337.872231 821.480607,338.266138 821.239587,338.50002 C821.647982,338.912392 822.022902,339.614039 822.464771,339.700207 C825.752014,340.352615 829.025867,340.211055 832.453704,338.746213 L832.453704,338.746213 Z M388.073393,348.163058 C384.57191,348.298463 382.529937,348.298463 380.494658,348.520036 C380.153213,348.556965 379.838549,349.510959 379.590834,350.107975 C379.550664,350.218761 379.878719,350.815777 380.092958,350.865015 C382.409427,351.394328 384.75937,351.905176 388.073393,348.163058 L388.073393,348.163058 Z M375.587227,20.3706828 C375.754602,20.61072 375.915281,21.0538657 376.089351,21.0661753 C379.376594,21.2815933 382.663837,21.4908565 385.957774,21.5708689 C386.265744,21.5770237 386.573714,20.7461256 386.888379,20.30298 C386.667444,20.0506332 386.439814,19.5890231 386.218879,19.5890231 C382.924941,19.5951779 379.617614,19.6505711 376.330371,19.7490479 C376.075961,19.7552027 375.834941,20.1552648 375.587227,20.3706828 L375.587227,20.3706828 Z M318.599427,295.071747 C320.567755,295.071747 322.375404,295.145604 324.162968,295.034818 C324.865942,295.004044 325.180607,294.240849 324.993147,293.385331 C324.926197,293.096056 324.564668,292.714458 324.343733,292.732923 C322.864139,292.831399 321.357765,292.917567 319.898256,293.256081 C319.469776,293.360712 319.141721,294.277778 318.599427,295.071747 L318.599427,295.071747 Z M734.967878,354.477883 C730.716556,355.431877 728.266188,354.311703 725.77565,355.370329 C725.24005,355.591902 724.001476,355.493425 724.79818,357.49989 C727.074479,357.259853 729.411032,357.069054 731.734195,356.73054 C732.23632,356.656682 732.70497,356.084286 734.967878,354.477883 L734.967878,354.477883 Z M789.33124,19.4228435 C785.876622,19.4228435 783.754309,19.3982243 781.618605,19.4597723 C781.38428,19.4659271 780.922326,20.0321688 780.962496,20.1860388 C781.083006,20.7461256 781.324025,21.6324169 781.61191,21.7062745 C785.240598,22.6233398 788.88937,22.3525286 792.518058,21.6324169 C792.839417,21.5708689 793.080437,20.7461256 793.361627,20.272206 C793.093827,20.087562 792.839417,19.7675123 792.564923,19.7305835 C791.045159,19.5520943 789.525395,19.4413079 789.33124,19.4228435 L789.33124,19.4228435 Z M482.499606,27.8303012 C486.958473,29.4797878 490.77462,28.6919733 495.862817,27.9349328 C490.8014,27.2763692 487.005338,26.5624123 482.499606,27.8303012 L482.499606,27.8303012 Z M223.229219,348.366166 C226.610192,350.24338 228.437925,351.289696 230.533459,351.418947 C231.417198,351.468186 232.287548,351.622056 232.863317,350.403405 C233.278407,349.547888 232.334413,348.261534 231.156093,348.24307 C229.07395,348.218451 226.985111,348.304618 223.229219,348.366166 L223.229219,348.366166 Z M803.20327,287.26746 C798.690843,284.854778 794.914866,283.531496 790.911259,283.709985 C790.636764,283.722294 790.281929,283.931558 790.134639,284.208524 C790.027519,284.393168 790.174809,285.137899 790.275234,285.162518 C794.104771,286.190369 797.927614,287.168983 801.757151,288.098358 C801.991476,288.159906 802.286056,287.815237 803.20327,287.26746 L803.20327,287.26746 Z M706.554318,311.923591 C702.604271,309.701708 698.721174,310.594154 694.965281,310.206402 C694.757737,310.181783 694.302477,310.840346 694.335952,310.926513 C694.570277,311.541993 694.884941,312.56369 695.212996,312.58831 C698.145404,312.779108 701.097897,312.852966 704.043695,312.822192 C704.786839,312.816037 705.523289,312.311344 706.554318,311.923591 L706.554318,311.923591 Z M754.497179,19.4782367 L754.497179,19.5336299 C751.805791,19.5336299 749.114403,19.5151655 746.423015,19.5582491 C746.1753,19.5644039 745.927585,19.9460016 745.679871,20.14911 C746.034705,20.5430172 746.37615,21.2631289 746.730985,21.2754385 C751.223327,21.4970113 755.715669,21.6139525 760.20801,21.755513 C761.379635,21.7924418 762.665074,20.9246149 762.310239,20.5060884 C761.895149,20.0198592 761.30599,19.5520943 760.78378,19.5213203 C758.688246,19.4166887 756.592713,19.4782367 754.497179,19.4782367 L754.497179,19.4782367 Z M112.748407,262.334362 C117.990588,266.211886 119.443402,266.88276 123.12565,265.867218 C124.632024,265.454846 126.714167,265.657954 127.437227,262.445148 C122.623525,261.238808 117.916943,261.312665 112.748407,262.334362 L112.748407,262.334362 Z M900.997066,339.638659 C900.782826,338.893928 900.742656,338.352305 900.595366,338.290757 C897.716518,337.1275 894.83767,336.001171 891.757973,336.530484 C889.066585,336.98594 886.361806,337.287525 883.670418,337.724516 C883.449483,337.761444 883.108039,338.315376 883.121429,338.610807 C883.128124,338.906237 883.482958,339.238597 883.730673,339.44786 C883.978388,339.657123 884.279663,339.823303 884.567548,339.847922 C886.080617,339.964863 887.600381,340.155662 889.113449,340.112578 C893.043412,340.007947 896.973374,339.804838 900.997066,339.638659 L900.997066,339.638659 Z M797.981174,62.0571478 C800.619002,63.9774456 803.183185,64.8452725 805.854488,65.0668454 C807.193487,65.1776318 806.959162,63.9405168 806.831958,62.6541635 C806.724838,61.6878598 807.086367,60.6292341 807.233657,59.6136919 C803.91294,58.038063 800.880107,58.3396482 797.981174,62.0571478 L797.981174,62.0571478 Z M376.243336,15.6253315 C386.198794,17.2625085 394.433638,17.0224712 399.52853,14.9483034 C391.722165,14.4620741 383.922496,13.7481173 376.243336,15.6253315 L376.243336,15.6253315 Z M400.773799,347.916866 C397.627151,348.113819 395.243733,348.23076 392.867009,348.427714 C392.65277,348.446178 392.324715,348.901634 392.284545,349.215528 C392.23768,349.535578 392.42514,350.181832 392.605905,350.24338 C396.696547,351.658984 400.867529,351.78208 405.051901,351.394328 C405.480381,351.357399 406.022675,350.575739 406.223525,349.972569 C406.531495,349.086278 406.1231,348.341547 405.366566,348.261534 C403.585697,348.07689 401.804828,347.990723 400.773799,347.916866 L400.773799,347.916866 Z M842.355602,214.468477 C842.208313,212.775907 842.174838,211.969628 842.061023,211.187968 C841.732968,209.113801 841.686103,208.824525 839.871759,209.163039 C838.767085,209.366147 838.25157,208.319831 837.414696,208.184426 C834.462203,207.692042 831.81768,209.784674 830.96072,213.317529 C830.900466,213.60065 831.074535,214.240749 831.248605,214.345381 C832.33989,214.954706 833.484734,215.964094 834.576018,215.902546 C836.986216,215.760985 839.37633,215.059338 842.355602,214.468477 L842.355602,214.468477 Z M553.419691,348.655442 C553.640626,350.674216 554.765385,351.566662 555.937009,351.738997 C561.098851,352.514502 566.180352,351.855938 571.181514,349.923331 C571.877793,349.652519 572.359833,349.381708 572.346443,348.532346 C572.346443,348.390785 571.810843,348.138438 571.529653,348.150748 C565.504158,348.403095 559.451882,347.264457 553.419691,348.655442 L553.419691,348.655442 Z M733.535149,312.034378 C731.499871,313.702329 729.283827,314.717871 726.980749,315.468756 C725.179795,318.423061 721.765347,316.44737 719.569389,319.703259 C722.923582,321.69126 726.150569,322.466765 729.417727,322.762195 C730.763421,322.885291 732.34344,323.346901 733.494979,321.635867 C732.83887,320.866517 732.22293,320.134095 731.613686,319.401674 C733.910069,317.727568 734.539398,315.271803 733.535149,312.034378 L733.535149,312.034378 Z M495.735612,351.295851 L495.735612,351.326625 C498.473865,351.326625 501.218813,351.326625 503.970456,351.32047 C505.10191,351.32047 506.206585,350.021807 505.711155,349.301696 C505.363015,348.790847 504.87428,348.0892 504.445801,348.083045 C499.250484,348.033807 494.055168,348.083045 488.859852,348.156903 C488.270692,348.169212 487.668143,348.452333 487.105763,348.723144 C486.898218,348.821621 486.697368,349.209374 486.637113,349.523268 C486.442958,350.434179 486.757623,351.234303 487.520853,351.258922 C490.259106,351.345089 492.997359,351.295851 495.735612,351.295851 L495.735612,351.295851 Z M496.612656,281.204981 C497.221901,281.155743 498.420305,281.057266 499.618709,280.92186 C499.919984,280.897241 500.221259,280.7803 500.489059,280.61412 C501.165253,280.170974 501.272373,279.506256 500.837198,278.693822 C500.381939,277.850615 500.475669,277.173586 501.178643,276.841227 C501.741023,276.570416 502.370352,276.564261 502.926037,276.274986 C503.461636,275.991865 503.990541,275.579493 504.405631,275.056335 C504.686821,274.705511 503.421466,273.123728 502.644847,272.75444 C499.404469,271.228049 496.110532,271.621956 492.829984,272.366687 C492.354639,272.471319 491.88599,273.252978 491.571325,273.862304 C491.129455,274.717821 491.691835,275.954936 492.716169,276.508868 C492.983969,276.650428 493.312024,276.625809 493.606603,276.693512 C493.894488,276.76737 494.389918,276.76737 494.436783,276.952014 C494.630938,277.758293 494.195763,277.973711 493.419144,278.226057 C492.622439,278.484559 491.25666,279.284683 491.28344,279.721674 C491.370475,281.07573 492.528709,280.798764 493.305329,280.940324 C494.195763,281.112659 495.106282,281.100349 496.612656,281.204981 L496.612656,281.204981 Z M680.845536,297.022819 C680.745111,298.992355 681.555206,300.327947 682.9009,300.038671 C684.393884,299.718621 685.893563,298.659996 687.339682,299.527823 C691.082184,301.76817 695.226386,300.130993 699.029144,301.885111 C699.986528,302.322102 701.352307,301.238857 702.510541,300.758783 C702.731476,300.666461 702.925631,300.137148 702.979191,299.76786 C703.026056,299.490894 702.865376,299.090832 702.704696,298.838485 C701.646887,297.133605 700.053478,296.918187 698.600664,296.444267 C689.997595,293.637678 689.9909,293.662298 680.845536,297.022819 L680.845536,297.022819 Z M249.232581,19.1397227 C244.659899,19.1397227 241.606981,19.1027939 238.560758,19.1458775 C233.981381,19.2074255 229.4087,19.3120571 224.836018,19.4536175 C224.608388,19.4597723 224.173213,20.1675744 224.193298,20.2168128 C224.474488,20.7461256 224.795848,21.6016429 225.150683,21.6262621 C228.183516,21.8847638 231.229738,22.1001818 234.269266,22.1186462 C244.666594,22.1801942 255.057227,22.1801942 265.447859,22.124801 C266.606093,22.1186462 267.777718,21.6324169 268.935952,21.2877481 C269.110022,21.2385097 269.344347,20.6661132 269.290787,20.4383856 C269.210447,20.0937168 268.935952,19.6197971 268.694932,19.5644039 C261.718747,18.0072393 254.702392,19.8967631 249.232581,19.1397227 L249.232581,19.1397227 Z M787.998936,263.202189 C788.829115,264.931688 789.61243,266.642723 790.455999,268.298364 C792.350683,272.028173 794.814441,272.225127 797.097434,268.975392 C798.577028,266.851986 799.521023,264.433149 799.969587,261.595786 C800.290947,259.527773 799.433988,257.410521 797.954394,256.98584 C796.44802,256.555004 794.888086,256.296503 793.555782,257.410521 C791.580758,259.084627 789.53209,260.672566 787.998936,263.202189 L787.998936,263.202189 Z M874.197,224.648517 L874.197,225.220914 C869.610928,225.220914 865.024856,225.19014 860.438785,225.270152 C860.050475,225.276307 859.675555,226.027193 859.293941,226.427255 C859.49479,226.704221 859.66886,227.165831 859.90988,227.227379 C864.087557,228.26754 868.171504,230.009349 872.563421,228.427565 C874.22378,227.830549 876.212194,228.42141 877.993062,228.876866 C882.538964,230.033968 887.084866,230.42172 891.664243,229.400024 C892.045857,229.320011 892.387302,228.458339 892.635017,227.867478 C892.708662,227.707453 892.420777,227.135057 892.199842,226.913484 C890.412279,225.067044 888.28327,224.710065 886.134177,224.666982 C882.150654,224.593124 878.173827,224.648517 874.197,224.648517 L874.197,224.648517 Z M447.370966,347.633745 L447.370966,348.107664 C441.271825,348.107664 435.172685,348.095355 429.073544,348.113819 C423.583648,348.126129 418.087057,348.163058 412.603856,348.24307 C411.840626,348.25538 411.378671,348.957027 411.626386,349.689448 C411.840626,350.335702 412.349446,351.252767 412.75784,351.277387 C418.227652,351.597436 423.710853,351.788235 429.194054,351.972879 C429.796603,351.997498 430.419238,351.868248 431.008398,351.683604 C434.02784,350.735764 437.080758,351.203529 440.120286,351.314315 C443.173204,351.425102 446.226122,351.738997 449.272345,351.64052 C452.901032,351.517424 456.442685,350.520346 460.185187,351.308161 C463.740229,352.059046 467.482732,351.105052 471.098029,351.523579 C474.519172,351.929796 477.752855,350.932718 481.053487,350.384941 C481.247642,350.348012 481.515442,349.775615 481.536077,349.430946 C481.548917,349.080123 481.314592,348.378476 481.173997,348.378476 C469.913015,348.10151 458.638643,347.861472 447.370966,347.633745 L447.370966,347.633745 Z M329.371674,347.92302 L329.371674,347.867627 C318.103997,347.867627 306.829625,347.867627 295.555253,347.873782 C293.41955,347.873782 291.290541,347.93533 289.154838,347.959949 C288.391608,347.972259 287.829229,348.470798 287.976518,349.363244 C288.076943,349.954105 288.672798,350.846551 289.061108,350.852705 C295.421353,350.988111 301.794989,351.351244 308.141844,350.957337 C316.945763,350.421869 325.736292,352.71761 334.533516,350.865015 C335.403865,350.680371 336.341164,351.172755 337.251684,351.246613 C338.778143,351.382018 340.297907,351.578972 341.81767,351.48665 C350.320314,350.988111 358.822958,350.957337 367.318907,351.819009 C368.195952,351.905176 369.166726,351.609746 369.983516,351.1666 C370.4053,350.932718 370.64632,350.003343 370.88734,349.33247 C370.934205,349.184754 370.639625,348.593894 370.47225,348.569274 C368.664602,348.316928 366.843563,347.959949 365.035914,347.953794 C353.145602,347.898401 341.261986,347.92302 329.371674,347.92302 L329.371674,347.92302 Z M591.246415,25.3868454 C591.822184,25.7130498 592.364479,26.2546723 592.926858,26.2916011 C596.274356,26.5501027 599.641939,26.4947095 602.976046,26.9317003 C606.296764,27.374846 609.570617,28.4888649 612.898029,28.9135461 C615.937557,29.3012986 619.01056,29.2151314 622.070173,29.2397506 C632.166226,29.319763 642.262279,29.3874658 652.358331,29.350537 C653.85801,29.3443822 655.364384,28.7966049 656.864063,28.4088525 C657.553648,28.2242085 657.854923,27.4117748 657.446528,26.5685671 C655.940154,23.3680707 654.199455,20.3829924 650.878737,21.6139525 C648.635914,22.4448506 646.667585,20.9676985 644.572052,20.8384477 C643.079068,20.7461256 641.264724,20.5430172 640.126575,21.5031661 C637.328067,23.8727644 634.342099,23.8050616 631.289181,23.792752 C628.236263,23.7865972 625.176651,23.915848 622.123733,23.792752 C613.875499,23.4542379 605.620569,24.8021393 597.36564,23.7373588 C595.243327,23.4665475 593.174573,24.0143248 591.246415,25.3868454 L591.246415,25.3868454 Z M873.775215,324.725577 C873.721655,324.430146 873.694875,323.925452 873.60784,323.900833 C870.608483,323.186876 867.756415,321.900523 865.065026,319.992535 C864.797227,319.807891 855.290333,316.595085 854.989059,316.533537 C854.085234,316.324274 853.201495,316.053462 852.29767,315.874973 C847.457189,314.902515 842.630097,313.936211 837.789616,313.000681 C836.644771,312.779108 835.406197,314.163939 834.341693,312.809882 C833.116509,311.265027 831.57666,310.981907 830.076981,311.148086 C823.669871,311.849734 817.27615,310.920359 810.88243,310.87112 C809.376056,310.858811 807.856292,311.080383 806.349918,311.258873 C806.182543,311.277337 805.881268,311.751257 805.914743,311.935901 C805.974998,312.28057 806.175848,312.74218 806.403478,312.852966 C807.836207,313.536149 809.724195,313.585387 810.64141,314.871741 C812.522703,317.493686 814.785612,318.090701 817.19581,318.44768 C820.837888,318.989302 824.493355,319.290888 828.135432,319.8202 C830.572411,320.177179 832.969219,320.657253 834.488983,323.876214 C834.877293,324.713267 835.981967,325.236425 836.812146,325.38414 C841.036688,326.147336 845.22106,327.636797 849.566112,326.541243 C850.737737,326.245812 852.016481,326.442766 853.214885,326.682803 C854.701174,326.984388 856.174073,327.999931 857.633582,327.907609 C859.40106,327.809132 861.135064,326.756661 862.915933,326.33198 C864.710192,325.913453 866.55801,325.790357 868.372354,325.501081 C870.173308,325.211806 872.054602,325.950382 873.775215,324.725577 L873.775215,324.725577 Z M444.980853,321.241959 C445.047803,322.337514 444.987548,323.143793 445.161618,323.83313 C445.482977,325.082555 445.630267,326.159645 444.512203,326.775125 C443.507954,327.322902 443.327189,328.480005 443.206679,329.710965 C443.086169,331.021938 442.637604,332.043635 441.579795,332.19135 C439.758756,332.443697 437.917633,332.726817 436.089899,332.732972 C419.546566,332.800675 403.009927,332.819139 386.473289,332.831449 C372.688294,332.843759 358.916688,332.825294 345.138388,332.843759 C333.502486,332.856068 321.853195,333.182273 310.223988,332.831449 C300.409125,332.529864 290.621042,332.929926 280.826263,333.126879 C278.067925,333.182273 275.322977,333.490013 272.578029,333.73005 C272.357094,333.748514 272.008955,334.136267 271.97548,334.407078 C271.888445,335.244131 272.296839,335.705741 273.053374,335.705741 C282.513402,335.681122 291.933261,337.029023 301.433459,336.628961 C315.814309,336.031945 330.221939,336.278137 344.616178,336.641271 C349.21564,336.758212 353.768237,336.111958 358.347614,336.142732 C367.225178,336.210435 376.102741,336.51202 384.980305,336.567413 C398.7653,336.65358 412.550296,336.622806 426.335291,336.647425 C430.626783,336.65358 434.91158,336.782831 439.203072,336.684354 C443.159814,336.592032 447.083081,337.109036 451.100078,336.407388 C455.291145,335.668812 459.636197,336.487401 463.914299,336.598187 C471.580069,336.80745 479.232449,337.010559 486.891523,337.158274 C487.788653,337.176738 488.692477,336.936701 489.576216,336.721283 C489.803846,336.66589 490.178766,336.124267 490.138596,336.007326 C489.917661,335.311834 489.683336,334.277827 489.274941,334.111648 C488.123402,333.650038 486.898218,333.428465 485.686424,333.317678 C476.507585,332.474471 467.322052,332.560638 458.136518,332.80683 C456.000815,332.868378 453.858416,332.732972 451.722713,332.597567 C450.209644,332.49909 449.23887,330.480315 449.49328,328.147646 C449.540144,327.753738 449.593704,327.347522 449.667349,326.953614 C450.055659,324.879447 450.812194,323.790047 451.970428,323.722344 C453.496887,323.630022 455.036736,323.463842 456.563195,323.52539 C469.116311,324.091632 481.669427,322.872982 494.215848,323.876214 C496.331466,324.042394 498.473865,323.562319 500.616263,323.476152 C503.977151,323.334592 507.391599,322.725266 510.685536,323.309972 C514.977028,324.067013 519.181485,323.790047 523.432807,323.39614 C528.621429,322.916065 533.816745,322.60217 539.025451,323.008387 C541.455735,323.205341 543.919493,322.928375 546.356471,322.651409 C547.213431,322.546777 547.347331,321.771272 546.617576,321.032696 C543.886018,319.900213 540.80632,319.949451 537.780182,320.257191 C530.429077,320.989613 523.098058,319.881748 515.753648,320.115631 C515.197963,320.134095 514.140154,320.509538 514.066509,318.626169 C517.494347,318.398441 520.835149,318.195333 524.175952,317.936831 C524.430362,317.912212 524.671381,317.518305 524.919096,317.296732 C524.617822,316.853586 524.316547,316.053462 523.995187,316.041153 C520.32633,315.881128 516.650777,315.881128 512.975225,315.770342 C510.210192,315.67802 507.451854,315.493376 505.068435,313.234564 C503.495111,311.738947 501.653988,311.388123 499.819559,311.338885 C496.157397,311.240408 492.481844,311.295801 488.812987,311.418897 C487.855602,311.443517 487.728398,312.083616 488.411287,312.637548 C491.71192,313.105313 495.005857,313.573078 498.30649,314.046997 C496.472061,315.031765 494.664413,315.425673 492.836679,315.505685 C486.416178,315.782651 479.995678,315.930366 473.568483,316.213487 C472.986018,316.238106 471.881344,315.758032 471.914819,317.912212 C475.911731,317.955296 479.868473,317.949141 483.825215,318.090701 C484.347425,318.109166 485.498964,317.850664 485.264639,319.789426 C471.780919,320.078702 458.330673,318.540002 444.980853,321.241959 L444.980853,321.241959 Z M823.92428,274.151579 C825.055735,273.579183 826.160409,272.662118 827.311948,272.502093 C829.434262,272.225127 831.596745,272.169734 833.719059,272.43439 C840.447529,273.265288 847.169304,272.428235 853.891079,272.243591 C854.707869,272.218972 855.511268,271.400383 856.314668,270.944928 C856.060258,269.96016 855.779068,269.221584 855.685338,268.446079 C855.250163,265.054784 853.958029,263.405297 851.266641,264.365446 C850.978756,264.476233 850.496717,264.673186 850.382902,264.507007 C848.079823,261.103402 844.812666,261.515774 841.880258,260.697185 C838.285045,259.706262 834.642968,259.029234 831.047755,258.093704 C827.184743,257.084317 823.509191,254.542384 819.378379,255.785654 C818.916424,255.927215 818.327264,254.97322 817.7448,254.770112 C815.984016,254.179251 814.216537,253.551461 812.428974,253.219102 C810.915905,252.929827 809.449701,253.065232 808.365111,255.053233 C807.862987,255.982608 806.885517,256.425753 806.182543,257.188949 C805.205074,258.259884 804.756509,260.22942 805.238549,261.546548 C806.162458,264.10079 807.220267,266.581174 808.117397,269.153881 C809.021221,271.745052 810.648105,272.557486 812.582958,272.619034 C815.026632,272.692892 817.49039,272.42208 819.920673,272.699046 C821.393572,272.859071 822.819606,273.769982 824.265725,274.354688 C819.378379,273.911542 814.645017,275.850304 809.791145,276.016484 C809.556821,276.022639 809.148426,276.515023 809.148426,276.791989 C809.135036,277.493636 809.161816,278.342999 809.449701,278.866157 C809.777755,279.475482 810.433865,279.758603 810.889125,280.275606 C811.089975,280.497179 811.230569,280.93417 811.237264,281.284993 C811.270739,282.158975 810.848955,282.61443 810.125895,282.700597 C808.077227,282.940635 806.021863,280.669513 803.73887,282.971409 C805.646943,283.753068 807.374252,284.497799 809.121646,285.168673 C809.70411,285.390245 810.326745,285.617973 810.915905,285.55027 C812.730248,285.347162 814.517812,284.922481 816.332156,284.762456 C816.814195,284.725527 817.73141,285.279459 817.75819,285.648747 C817.97243,288.553813 819.619398,288.658445 821.085602,288.553813 C822.893251,288.418407 824.67412,287.685986 826.475074,287.39671 C827.653393,287.212066 829.039257,286.848933 830.030116,287.458258 C832.621079,289.058507 835.372722,288.941565 838.070805,289.42164 C839.021495,289.593974 839.208955,290.597207 838.53276,292.726768 C840.889398,293.477653 843.205867,294.247004 845.522335,294.936341 C846.218615,295.13945 846.620314,294.579363 846.868029,293.662298 C847.724989,290.529504 849.512552,289.747844 851.895971,289.661677 C853.911164,289.593974 855.203298,290.17868 856.220938,292.609827 C856.515517,293.323783 857.874602,293.342248 858.765036,293.520737 C865.379691,294.850174 872.034517,295.847252 878.575527,297.890646 C883.054479,299.29394 887.647246,299.035438 892.206537,298.303017 C893.645961,298.069135 895.09208,295.231772 894.924705,292.720613 C894.817585,291.144984 893.652656,291.323473 892.835867,290.935721 C890.860843,290.018655 891.075083,289.907869 891.208983,287.655212 C891.409833,284.534728 893.411636,284.079273 894.723856,282.589811 C892.956377,281.235755 891.188898,279.894008 889.434809,278.539952 C889.736084,278.546107 890.037359,278.595345 890.325244,278.527643 C890.572958,278.472249 890.807283,278.287605 891.048303,278.1522 C890.586348,278.379927 890.117699,278.607655 889.655744,278.835383 C888.490815,279.309302 887.345971,279.875544 886.160957,280.207903 C885.611967,280.361773 884.674668,280.343309 884.460428,279.912473 C882.646084,276.250366 879.974781,276.102651 877.182968,276.631964 C873.72835,277.296682 870.581703,274.748595 867.26768,275.007097 C863.612212,275.284063 859.983525,275.887233 856.321363,275.296372 C856.026783,275.253289 855.725508,275.154812 855.437623,275.019406 C853.362175,274.028483 851.320201,274.336223 849.151023,274.699357 C841.585678,275.942626 833.980163,276.644274 826.354564,275.591803 C825.517689,275.474861 824.734375,274.650118 823.92428,274.151579 L823.92428,274.151579 Z M41.794847,12.2278815 C42.5446865,13.5203896 43.287831,14.806743 44.1782653,16.3454432 C45.1825146,16.690112 46.3742238,17.0347808 47.545848,17.5025457 C48.7107771,17.9641557 49.8556213,18.5180878 51.0071605,19.0843295 C51.6833551,19.4105339 52.0783598,20.2229676 51.73022,21.0354013 C51.5025902,21.5893333 50.8130057,21.9832406 50.290796,22.0817174 C49.7150264,22.1925038 49.0589169,21.6816553 48.4965373,21.8232158 C48.0011076,21.9463118 47.2847432,22.5125534 47.1977082,23.0418663 C47.0972833,23.6019532 47.505678,24.6359597 47.9073777,24.9683189 C53.209814,29.2643698 58.7733551,32.2802221 65.1871605,31.3693116 C67.2826941,31.0677264 68.735508,29.8675403 69.1037328,27.1471183 C69.7531473,22.3833026 70.221797,17.5764033 70.7640916,12.9110644 C69.9874721,12.3879063 69.4853475,11.8278195 68.9296629,11.6924138 C62.6296723,10.1906425 56.3497668,8.25803506 49.8623163,9.07662355 C48.5701822,9.24280316 47.505678,8.45498868 46.4679537,7.55023298 C45.7047243,6.8978241 44.9281048,6.24541523 44.1046204,5.72841197 C42.9932512,5.0206099 41.9019669,5.87612719 41.7345921,8.23341585 C41.7011171,8.6334779 41.761372,9.04584954 41.781457,9.45206639 C41.1989924,10.3814413 41.4065373,11.3046614 41.794847,12.2278815 L41.794847,12.2278815 Z M844.210116,124.645316 L844.029351,124.799186 C844.913091,124.503756 845.883865,124.392969 846.667179,123.832882 C847.028709,123.574381 847.115744,122.454207 847.202779,121.703321 C847.303204,120.730863 846.921589,120.103073 846.245395,119.930739 C845.348265,119.715321 844.444441,119.376807 843.540617,119.370652 C828.838407,119.241401 814.136197,119.149079 799.427293,119.09973 C798.208804,119.093686 796.976924,119.346033 795.785215,119.678392 C795.276396,119.813797 794.821136,120.410813 794.399351,120.890888 C794.011042,121.327878 795.249616,123.149699 796.160135,123.340498 C801.261721,124.423743 806.323138,125.851657 811.464894,126.540995 C812.730248,126.713329 813.834923,126.097849 814.886037,125.131545 C815.615791,124.460672 816.479446,124.011371 817.477,123.334343 C820.302288,125.519298 823.395376,127.082617 826.501854,128.609008 C829.280277,126.633317 831.047755,129.181404 833.002694,131.095547 C833.719059,131.797194 834.636273,132.424984 835.493232,132.511151 C836.912571,132.652712 837.374526,130.892439 838.13106,129.630705 C838.646575,128.756723 839.577179,128.178172 840.400664,127.815038 C841.880258,127.156475 843.266122,126.411744 844.210116,124.645316 L844.210116,124.645316 Z M319.757661,26.2238982 C320.045546,27.4240844 320.527585,28.5442581 321.531835,28.6304253 C329.472099,29.2951438 337.352109,30.772296 345.285678,31.449324 C348.425631,31.7139805 351.378124,31.4247048 354.283752,29.8921595 C355.770041,29.1104998 357.289805,29.1597382 358.722534,30.1752803 C360.402977,31.357002 362.190541,31.7509093 364.058445,31.6155036 C366.769918,31.4123952 369.488086,31.1846676 372.299984,30.9630948 C371.871504,29.627503 371.550144,28.6488897 371.23548,27.6702764 C372.038879,27.2394404 372.802109,26.6362699 373.632288,26.4085423 C376.584781,25.5961086 379.684564,26.8763071 383.741731,25.0791053 C379.269474,25.0052477 375.915281,24.8513777 372.561089,24.9313901 C370.41869,24.9806285 368.282987,25.2945233 366.160673,25.6576566 C361.889266,26.3900779 357.664724,26.9378551 353.386622,25.4853222 C351.639229,24.8883065 349.744545,24.9067709 347.916811,24.8144489 C343.946679,24.6051857 339.969852,24.5067089 335.99972,24.3528388 C330.476348,24.1374208 324.959672,24.2112784 319.617066,26.4947095 C317.675517,25.0483313 315.626849,24.5251733 313.437585,25.1344985 C313.149701,25.2145109 312.888596,25.4668578 312.620796,25.6391922 C312.955546,26.230053 313.209956,27.0671059 313.665215,27.3502268 C315.847784,28.7104377 317.822807,27.5471804 319.757661,26.2238982 L319.757661,26.2238982 Z M185.248511,273.81922 C184.358076,272.483628 183.219927,272.298984 182.195593,273.19143 C181.003884,274.219282 180.03311,275.67797 178.88157,276.785834 C177.823761,277.795221 176.732477,277.407469 175.728228,276.422701 L176.216962,276.133425 L175.962552,276.74275 C174.375839,278.244522 171.758095,277.247444 170.499436,280.718752 C176.933327,281.198826 182.998992,281.69121 189.098133,280.804919 C190.718322,280.571036 191.876556,279.967866 192.746906,277.961401 C193.095045,277.167432 194.313534,276.779679 195.157104,276.693512 C196.971448,276.521178 198.792486,276.662738 200.546575,277.592113 C201.356669,278.016794 202.447954,278.355308 203.191098,277.973711 C206.505121,276.256521 209.799059,277.185896 213.133166,277.561339 C214.35835,277.696745 215.48311,276.853537 216.253034,275.444087 C208.828284,272.052792 206.096726,271.394229 200.426065,271.591182 C195.264224,271.775826 190.162637,272.58826 185.061051,273.542254 L185.248511,273.81922 Z M554.70513,332.689889 C556.439134,332.129802 558.186528,331.655882 559.880362,330.941925 C560.188331,330.812674 560.261976,329.71712 560.442741,329.070866 C559.907142,328.836983 559.364847,328.375373 558.849332,328.418457 C558.293648,328.467695 557.630843,328.824674 557.249229,329.347832 C556.398964,330.468006 555.69599,331.791288 554.939455,333.028403 C553.406301,333.003783 551.879842,332.886842 550.346688,332.973009 C540.55191,333.533096 530.777217,333.754669 520.975744,332.997629 C513.959389,332.462161 506.896169,333.003783 499.859729,333.139189 C499.545064,333.145344 499.237094,333.908539 498.902345,334.34553 C499.524979,334.733282 500.033799,335.225667 500.596178,335.361072 C505.73124,336.647425 510.939946,336.832069 516.148653,336.832069 C524.109002,336.825915 532.076046,336.942856 540.036396,336.825915 C543.705253,336.764367 547.37411,336.333531 551.036273,335.933469 C552.636377,335.761134 553.881646,334.567103 554.70513,332.689889 L554.70513,332.689889 Z M879.325366,134.332972 L879.144602,134.148328 C880.470211,135.34236 881.9565,136.074781 883.255329,134.480687 C884.614413,132.812736 886.114092,131.661789 887.781145,130.683175 C888.504205,130.258494 889.153619,129.101392 889.488369,128.07354 C891.081778,123.149699 889.555319,118.028905 885.297302,117.216472 C883.877963,116.94566 882.271164,117.314948 880.905385,117.961202 C878.582222,119.056757 877.089238,121.555606 875.596254,124.140622 C873.94259,127.002605 873.82208,129.993838 874.337595,133.169715 C874.658955,135.133096 876.232279,136.567165 877.839077,135.662409 C878.374677,135.360824 878.836632,134.782273 879.325366,134.332972 L879.325366,134.332972 Z M760.522675,34.4528668 C761.908539,33.6219687 763.260928,32.624891 764.887812,33.3080738 C767.847,34.5513436 770.853053,35.1975976 773.926056,34.1512815 C774.46835,33.9666375 774.983865,33.4373246 775.41904,32.932631 C775.800654,32.5017949 774.635725,30.8276892 773.745291,30.3476147 C771.140938,28.9504749 768.40938,28.6181157 765.651042,28.4273169 C764.760607,28.3657689 763.501948,28.3165305 763.066773,27.5841092 C760.81056,23.7373588 757.670607,23.9035384 754.684639,24.3713032 C749.208133,25.2268205 743.745017,25.922313 738.255121,26.3408395 C737.893591,26.3716135 737.511976,27.4117748 737.264262,28.0580289 C737.170532,28.3165305 737.304432,28.8889269 737.478501,29.1597382 C739.3531,32.1571261 741.348209,33.6527427 744.628756,32.5571881 C750.031618,30.7599864 755.534904,31.1908224 760.763695,34.2312939 L761.125225,34.4036284 L760.522675,34.4528668 Z M83.2301728,267.356679 C84.314762,266.691961 85.3524863,265.744122 86.4973305,265.430227 C88.566084,264.85783 90.6883975,264.691651 92.7906261,264.316208 C93.6208055,264.174647 94.1497101,262.580554 93.8216553,261.583476 C92.3889263,257.250497 89.6305883,254.554694 86.5977554,252.935981 C84.2344221,251.674247 81.2819292,250.720253 79.4341105,255.157864 C78.9386808,256.345741 77.4523919,256.770422 76.4749226,257.644404 C75.4438933,258.579934 75.4773683,261.060318 76.4816176,261.829668 C78.8114759,263.614561 81.1413343,265.387143 83.4711926,267.165881 C84.7164618,266.765819 85.8880859,268.932308 87.6756497,266.88276 C85.841221,267.079713 84.5356969,267.221274 83.2301728,267.356679 L83.2301728,267.356679 Z M196.328728,349.904866 C197.045093,351.47434 198.270277,352.151368 199.408426,351.702068 C202.702364,350.403405 205.902571,350.846551 209.216594,351.449721 C211.881202,351.94826 214.62615,351.634365 217.330928,351.517424 C217.719238,351.49896 218.241448,350.674216 218.415517,350.083355 C218.649842,349.277076 218.228058,348.483107 217.498303,348.421559 C212.088747,347.929175 206.672496,347.750686 201.24955,348.212296 C199.408426,348.372321 197.674422,348.852395 196.101098,350.194142 L196.020758,349.658674 L196.328728,349.904866 Z M425.900116,318.053773 L426.100966,318.306119 C422.365159,320.841897 418.314686,320.023309 414.391419,320.004844 C410.113317,319.980225 405.848605,319.875594 401.624063,320.848052 C400.773799,321.045006 400.593034,321.69126 401.075074,322.417526 C403.873582,324.085477 406.95328,323.906988 409.952637,323.863904 C415.127869,323.802356 420.3031,323.593093 425.485026,323.84544 C428.11616,323.968536 430.968228,323.931607 433.679701,321.826665 C430.921363,320.484919 428.410739,319.266268 425.900116,318.053773 L425.900116,318.053773 Z M590.28903,347.732221 C589.398596,347.849163 588.514856,347.93533 587.637812,348.095355 C587.423572,348.126129 587.242807,348.403095 587.048653,348.569274 C587.570862,348.630822 588.139937,348.901634 588.601891,348.71699 C589.144186,348.501572 589.606141,347.892246 590.094875,347.455255 C593.080843,347.449101 596.093591,347.670673 598.858624,345.762685 C599.019304,345.651899 599.113034,344.790227 598.985829,344.648666 C597.37903,342.777607 595.430787,341.811303 593.368728,341.343538 C592.926858,341.238907 592.284139,341.879006 591.882439,342.389855 C590.77107,343.830078 590.161825,345.596506 590.28903,347.732221 L590.28903,347.732221 Z M781.78598,323.519236 C782.006915,322.392907 782.274715,321.266579 782.4287,320.121786 C782.46887,319.84482 782.221155,319.389364 782.01361,319.180101 C781.806065,318.989302 781.444535,318.878516 781.210211,318.964683 C780.527321,319.223185 780.359946,319.857129 780.688001,320.663408 C781.109786,321.703569 781.55835,322.737576 781.993525,323.777737 C780.319776,323.033006 778.652722,322.263656 776.965584,321.574319 C776.798209,321.500461 776.289389,321.992845 776.309474,322.122096 C776.423289,322.829898 776.503629,323.83313 776.858464,324.128561 C778.558992,325.501081 780.232741,325.082555 781.78598,323.519236 L781.78598,323.519236 Z M808.673081,227.541274 C808.278076,226.316468 807.534932,225.602512 806.577548,225.627131 C806.115593,225.63944 805.667028,226.25492 805.211769,226.58728 C805.579993,227.122747 805.961608,228.107515 806.329833,228.095206 C807.186792,228.076741 808.037057,227.578203 808.887321,227.264308 L808.673081,227.541274 Z M900.970286,187.775107 C898.914923,188.482909 896.872949,189.418438 894.78411,189.836965 C892.735442,190.249336 890.740333,187.670475 888.490815,189.473832 C888.370305,190.569386 888.289965,191.775727 888.09581,192.951294 C887.674025,195.419369 886.060532,197.579704 884.440343,197.678181 C881.996669,197.825896 879.546301,197.733574 877.102628,197.881289 C875.589559,197.973611 874.096575,198.305971 872.590201,198.601401 C872.436216,198.632175 872.215281,199.143023 872.215281,199.426144 C872.221976,199.752349 872.396046,200.232423 872.596896,200.373984 C874.57192,201.740349 876.714318,201.740349 878.870107,201.740349 C880.128766,201.746504 881.360645,202.115792 882.210909,203.389836 C884.212713,206.387224 886.971051,206.984239 889.669134,207.568946 C896.913119,209.132265 904.130324,211.077182 911.521599,211.046408 C914.018832,211.040253 916.34869,211.686507 918.564734,213.329839 C919.609153,214.099189 920.807557,214.733134 921.979181,214.874694 C928.379597,215.668663 934.619332,218.112119 941.106783,217.989023 C942.298492,217.964404 943.496896,218.40755 944.621655,218.622968 C944.742165,219.293841 944.85598,219.687748 944.88276,220.08781 C945.08361,224.131514 944.70869,224.974722 942.539512,225.042425 C940.089144,225.128592 937.638775,225.079353 935.195102,225.208604 C934.338143,225.257843 933.487878,225.66406 932.563969,225.928716 C933.467793,228.452184 935.342392,227.578203 936.634526,228.476803 C937.652165,229.19076 939.091589,229.252308 939.258964,231.443417 C932.885329,233.83148 926.498303,232.828248 920.184923,231.234154 C914.782061,229.880098 909.45954,227.947491 904.090154,226.371862 C902.62395,225.94718 901.090796,225.885632 899.624592,225.66406 C899.343402,227.479726 900.695791,227.639751 900.843081,228.90764 C899.591117,231.031046 898.345848,233.277548 896.993459,235.407109 C895.76158,237.345871 894.168171,238.158305 892.219927,238.539903 C883.670418,240.201699 875.161079,240.281711 866.63835,238.361413 C865.439946,238.090602 864.154507,237.715159 863.002968,238.022899 C858.972581,239.081525 855.089483,237.53667 851.139436,237.179692 C849.920947,237.06275 848.709153,236.594986 847.510749,236.681153 C837.120116,237.3828 826.736178,237.247394 816.345546,236.711927 C813.861703,236.582676 811.444809,237.031976 809.155121,238.127531 C808.478926,238.453735 807.782647,239.912423 807.722392,240.92181 C807.648747,241.931198 808.144177,243.592994 808.753421,243.986901 C812.054054,246.097998 815.347992,248.603002 819.030239,249.095386 C824.279115,249.797033 829.179852,252.03738 834.067198,254.333121 C842.161448,258.142943 850.536887,260.334052 858.959191,262.24204 C871.324847,265.060939 883.683808,267.929076 896.076245,270.507937 C904.217359,272.200508 912.278133,274.920929 920.633487,274.29314 C921.825196,274.206973 923.057076,274.668583 924.24209,275.037871 C924.804469,275.222515 925.413714,275.653351 925.788634,276.225747 C926.391183,277.105884 927.080768,278.133735 927.241448,279.235445 C927.442297,280.583346 926.337623,280.971098 925.587784,281.574269 C925.119134,281.955867 924.436245,282.712907 924.48311,283.199136 C924.543364,283.839236 925.139219,284.608586 925.641344,284.928635 C926.732628,285.624128 927.884167,286.264227 929.069181,286.559658 C930.83666,287.002803 932.651004,287.125899 934.378313,287.378246 C932.778209,288.159906 930.923695,288.430717 930.280975,291.397331 C929.966311,292.849864 928.861636,293.982347 928.319342,295.391796 C928.165357,295.810323 928.593837,297.164379 928.921891,297.29363 C930.073431,297.736776 931.3187,298.118373 932.483629,297.982968 C934.920607,297.699847 937.32411,297.047438 939.741004,296.585828 C942.003912,296.154992 943.945461,297.262856 945.773195,298.906188 C946.683714,299.724776 948.029408,304.260864 947.540673,305.356419 C946.456084,307.836803 945.24429,310.206402 942.834092,310.631083 C940.745253,310.988061 938.643025,311.320421 936.400201,311.689709 C936.045366,313.979295 935.643667,315.918057 935.496377,317.887593 C935.449512,318.453835 936.058756,319.580163 936.453761,319.66633 C937.946745,319.980225 939.479899,319.937142 940.992968,320.084857 C944.045886,320.374132 947.098804,320.688027 950.151721,321.020387 C950.446301,321.051161 950.727491,321.266579 951.350126,321.543545 C952.34768,323.045316 953.479134,324.953304 954.771268,326.633565 C956.063402,328.326135 957.516216,329.797132 958.774875,331.231201 C958.935555,335.681122 959.07615,339.706361 959.230135,343.737756 C957.496131,347.172135 958.788265,350.877325 958.707925,354.453264 C958.640975,357.690689 958.828435,360.940424 958.815045,364.190159 C958.80835,365.38419 958.587415,366.590531 958.420041,367.784562 C957.830881,372.055994 954.121854,373.56392 952.02632,371.360501 C951.62462,370.929665 951.283176,370.043374 951.283176,369.372501 C951.276481,368.658544 951.577755,367.747633 951.98615,367.261404 C955.614838,362.842257 955.574668,357.241389 954.864998,351.462031 C954.791353,350.834241 954.175414,350.040272 953.679984,349.831009 C951.577755,348.920098 949.421967,349.184754 947.366603,350.10182 C946.556509,350.452643 945.880314,351.406638 945.19073,352.151368 C943.068416,354.440954 943.222401,359.075519 940.283298,360.608065 C939.955244,360.780399 939.727614,362.042133 939.801259,362.725316 C939.941854,363.900883 940.510928,364.990283 940.624743,366.159695 C940.865763,368.510829 939.325914,371.262025 937.68564,371.5513 C935.556632,371.926743 933.541438,372.02522 931.47938,370.47421 C927.495857,367.470667 923.271315,365.033366 919.287793,362.035978 C916.904375,360.257241 914.601297,358.133835 912.612883,355.671914 C910.1826,352.680681 907.524686,351.677449 904.297699,351.677449 C896.357434,351.665139 888.410475,351.338935 880.456821,351.135826 C881.23344,349.504804 882.800069,350.981956 883.723978,349.911021 C883.931523,349.670984 884.139068,349.338624 884.206018,348.993956 C884.239493,348.784692 884.058728,348.279999 883.931523,348.249225 C883.034394,348.039962 882.123874,347.806079 881.22005,347.79377 C872.650456,347.676828 864.074167,347.590661 855.497878,347.535268 C853.362175,347.516803 851.126046,347.301385 850.148577,350.846551 C850.021372,351.295851 849.084073,351.382018 848.501608,351.554353 C847.919144,351.726687 847.289814,351.738997 846.707349,351.96057 C845.86378,352.26831 845.073771,353.714688 845.241145,354.724075 C845.361655,355.462651 845.5692,356.379716 845.98429,356.785933 C847.209474,357.97381 848.548473,358.946268 850.007982,360.146454 C849.827217,364.504053 848.240503,368.516983 848.354318,372.899201 C844.183336,374.517914 840.005659,374.881047 835.801202,373.323883 C835.593657,373.24387 835.272297,372.720712 835.319162,372.566842 C835.526707,371.852885 835.720862,370.837343 836.149342,370.578842 C838.78717,369.003213 841.491948,369.200166 844.203421,370.369578 C844.350711,370.424972 844.879616,369.723324 844.846141,369.624848 C844.618511,369.003213 844.323931,368.01229 843.982486,367.950742 C841.853478,367.599918 839.697689,367.125998 837.582071,367.322952 C831.382505,367.864575 825.410569,366.091992 819.411854,364.547137 C813.707718,363.082294 808.030362,361.463582 802.312836,360.072597 C798.041429,359.032436 793.776717,359.34633 789.592345,360.885031 C789.070135,361.075829 788.681825,361.900573 788.233261,362.43604 L788.43411,362.214468 C787.182146,363.316177 785.936877,364.424041 784.698303,365.52575 C784.698303,365.931967 784.698303,366.325874 784.691608,366.725936 C784.658133,368.793949 784.363553,369.415584 783.546764,369.120154 C779.529767,367.630692 775.439125,366.375113 771.502467,364.577911 C767.786745,362.885341 763.836698,362.288325 760.241485,360.349563 C757.623742,358.933959 754.791759,359.758702 752.334696,358.170763 C750.553827,357.019816 749.529493,358.558516 748.331089,359.66638 C744.434602,357.684534 744.427907,357.721463 738.93801,358.583135 C742.633648,359.660225 745.586141,359.149377 748.498464,359.414033 C746.63056,362.645304 743.544167,361.642071 741.167444,363.119223 C741.549059,364.590221 741.923978,366.042754 742.285508,367.482977 L742.493053,367.181392 C738.087746,367.464512 734.064054,365.285713 729.946632,363.728548 C729.739087,363.648536 729.779257,362.312944 729.745782,361.562059 C729.698917,360.626529 729.223572,359.869488 728.567463,360.263396 C724.215716,362.934579 719.676509,362.731471 715.110522,361.894418 C713.938898,361.679 712.586509,361.266628 711.722855,360.300324 C709.426471,357.739927 706.815423,356.909029 704.003525,357.309091 C700.850182,357.758392 697.931164,356.484348 694.965281,355.548818 C692.273893,354.693301 689.5892,353.930106 686.790692,354.367097 C685.880173,354.514812 684.956263,354.477883 684.039049,354.459419 C680.671466,354.385561 677.504734,352.237536 674.043421,352.87148 C671.017283,353.431567 667.964365,353.813165 664.918143,354.108595 C661.557255,354.434799 658.182977,354.705611 654.815395,354.742539 C652.693081,354.767159 650.510513,354.644063 648.461844,354.010118 C642.094904,352.065201 635.781523,351.591282 629.381108,353.690069 C627.620324,354.262465 625.73903,354.274775 623.911297,354.330168 C617.477406,354.514812 611.036821,354.520967 604.60293,354.736385 C599.394224,354.902564 594.165432,354.908719 589.003591,355.628831 C582.000626,356.607444 574.930711,356.761314 568.001391,358.607754 C566.843157,358.90934 565.571108,358.724696 564.386093,358.460039 C561.627755,357.844559 559.076962,358.355407 556.465914,359.752547 C554.49089,360.811173 552.254762,361.211235 550.534148,358.58929 C548.16412,360.478814 545.914602,359.266318 543.591438,358.318479 C542.453289,357.850714 541.107595,357.579903 539.976141,357.906107 C536.012703,359.069364 532.096131,358.552361 528.152779,357.887643 C527.24226,357.739927 526.311655,357.81994 525.401136,357.739927 C522.917293,357.518355 520.614214,358.103061 518.344611,359.660225 C516.731117,360.768089 515.003808,360.885031 513.24972,358.995507 C511.448766,357.056745 509.199247,357.352175 507.284479,359.186306 C505.85175,360.552671 504.485971,360.706541 503.086717,359.352485 C501.500003,357.813785 499.699049,357.549129 497.844535,357.567593 C494.791618,357.592212 491.71192,357.315246 488.712562,357.863023 C483.798435,358.767779 478.964649,357.130602 474.104082,357.536819 C469.51801,357.912262 464.945329,357.549129 460.379342,357.555283 C456.39582,357.555283 452.405602,357.34602 448.44886,357.721463 C443.909653,358.139989 439.410617,359.229389 434.851325,357.918417 C434.409455,357.795321 433.673006,358.343098 433.324866,358.872411 C431.999257,360.891185 430.747293,360.404956 429.314564,359.081674 C428.591504,358.410801 427.70107,357.943036 426.83072,357.709153 C426.308511,357.573748 425.364517,357.826095 425.170362,358.306169 C423.945178,361.297402 422.264734,360.534207 420.510645,359.561748 C420.74497,359.537129 421.006075,359.586368 421.206924,359.463272 C421.327434,359.395569 421.340824,359.0509 421.407774,358.829327 C421.166754,359.161686 420.939125,359.506355 420.711495,359.844869 C419.94157,359.180151 419.191731,358.016893 418.401721,357.949191 C414.203959,357.598367 409.912467,356.761314 405.835215,358.466194 C404.228416,359.137067 403.224167,359.143222 401.697708,358.275395 C400.459134,357.561438 398.68496,357.899952 397.272316,358.410801 C394.929068,359.260163 392.699635,360.90965 390.470201,358.12768 C390.289436,357.899952 389.907822,357.856869 389.619937,357.856869 C383.842156,357.97381 378.05768,358.041513 372.279899,358.318479 C371.12836,358.367717 369.996906,359.235544 368.858756,359.727928 L369.046216,359.487891 C368.048662,360.103371 366.964073,361.112758 365.926348,360.164919 C364.600739,358.964733 363.27513,359.494046 361.922741,359.567903 L362.003081,359.801786 C361.219767,358.687767 360.456537,358.139989 359.720088,359.851024 L359.780343,359.690999 C356.18513,361.045055 352.610003,360.26955 349.034875,359.52482 L349.115215,359.801786 C347.756131,357.629141 346.383657,358.404646 345.017878,359.777166 L345.104913,359.494046 C343.083025,358.533897 341.114696,357.469116 338.865178,358.546206 C337.740418,359.087829 336.408114,359.617142 335.296745,359.303247 C331.627888,358.263085 328.11971,358.786244 324.604838,360.26955 C322.957869,360.965043 321.638955,359.96181 320.460636,358.533897 C318.097302,360.657303 315.841089,359.198615 313.51123,358.275395 C312.373081,357.81994 311.020692,357.536819 309.895933,357.899952 C305.932496,359.198615 302.022619,358.429265 298.079266,357.912262 C297.162052,357.795321 296.238143,357.850714 295.327623,357.770701 C292.83039,357.561438 290.554092,358.152299 288.284488,359.764857 C286.684384,360.903495 284.930296,360.946579 283.189597,359.06321 C281.375253,357.087519 279.152515,357.419878 277.251136,359.315556 C275.831797,360.718851 274.466018,360.792709 273.060069,359.438652 C271.767935,358.201537 270.315121,357.647605 268.755187,357.659915 C264.79175,357.696844 260.828313,357.721463 256.87157,357.912262 C256.001221,357.955345 255.157652,358.712386 254.293997,359.06321 C253.718228,359.297092 252.954998,359.764857 252.546603,359.469426 C246.989757,355.561128 241.138331,358.453884 235.44089,358.084596 C229.950994,357.733773 224.441013,357.715308 218.937727,357.721463 C217.136773,357.727618 215.32243,358.26924 213.514781,358.564671 C211.385772,361.389724 208.908624,360.44804 206.665801,359.260163 C204.978662,358.361562 203.920853,358.823172 202.595244,360.146454 C202.019474,360.712696 200.841155,360.552671 200.03106,360.257241 C199.180796,359.943346 198.477822,358.970888 197.640947,358.490813 C196.730428,357.967655 195.866773,358.28155 195.224054,359.364795 C193.724375,361.919037 192.064016,361.174306 190.376877,359.771012 L190.852222,359.35864 L190.530862,359.918727 C188.964233,358.952423 187.498029,356.958268 185.630126,359.290937 C185.315461,359.67869 184.358076,359.703309 183.996547,359.35864 C182.958822,358.355407 182.068388,357.746082 180.675829,358.324633 C177.509096,359.647916 174.382534,361.014281 170.887746,360.398801 C167.627283,359.814095 164.273091,362.417576 160.985848,360.208002 C157.049191,360.312634 153.119229,360.374182 149.182571,360.521897 C143.3914,360.749625 137.600229,361.155842 131.802364,361.266628 C125.080588,361.402034 118.352118,361.254319 111.623648,361.309712 C109.795914,361.322021 107.95479,361.506665 106.140447,361.808251 C103.743638,362.202158 102.130144,363.697774 102.337689,367.341416 C102.418029,368.701627 101.889125,369.655622 101.099115,370.381888 C99.967661,371.415895 99.6128263,372.800725 99.8002861,374.567152 C99.981051,376.148936 100.456396,377.835352 99.5726563,379.26942 C98.1934873,381.503613 96.5465184,383.270041 94.31039,383.75627 C93.7078404,383.891676 93.0985958,384.002462 92.4960463,384.002462 C90.3603428,383.996307 88.2380293,383.996307 86.1090208,383.867056 C84.5423919,383.774734 83.1632229,382.919217 81.9246487,381.651328 C83.6720425,381.442065 84.1741671,379.521767 84.7566317,377.823042 C85.0378215,376.985989 84.6629018,376.284342 83.9800123,376.130472 C83.7256025,376.068924 83.3172077,376.204329 83.1699178,376.450521 C82.2326185,378.075389 82.1656686,380.007996 82.1857535,381.959068 C79.1529207,383.208493 76.1066978,382.242189 73.08056,381.971378 C71.9223258,381.872901 70.7373116,381.072777 69.6795024,380.291117 C65.943695,377.509147 62.2212776,374.659474 58.5591152,371.699015 C57.2669811,370.658854 56.015017,369.390965 54.9973777,367.913813 C52.5202295,364.325564 50.1033362,360.638839 47.8270378,356.822862 C46.8964334,355.278007 46.3541388,353.314626 45.7047243,351.49896 C43.8836856,346.365856 42.3505316,341.072727 40.455848,335.951933 C38.1862446,329.815597 37.0280104,322.946839 35.4279065,316.367357 C35.2471416,315.616472 35.2002767,314.717871 35.3207866,313.948521 C36.7133456,304.796332 36.9610604,295.311784 39.8265184,286.596586 C40.1947432,285.488722 40.5897479,284.374703 40.8910227,283.223756 C41.9823069,279.038491 45.3298045,276.299605 45.2963296,271.431157 C45.2695496,267.159726 47.0504183,263.694573 47.9408527,259.841668 C48.3559424,258.069085 47.1106733,254.936292 45.8654042,255.287115 C42.1028168,256.37036 39.3712587,253.773034 36.5727507,251.286495 C35.8229112,250.615622 35.1868867,249.686247 34.5374721,248.81842 C33.6805127,247.661317 32.9373683,246.325725 32.0134589,245.273255 C27.3068772,239.875494 23.7384448,233.419108 21.4822314,225.682524 C20.9332417,223.786845 20.3775571,221.854238 19.5875477,220.130894 C17.6326091,215.865617 16.5881898,211.231052 16.0726752,206.337985 C15.9454703,205.131644 16.0057252,203.765279 15.5973305,202.749737 C14.0240066,198.798355 14.4658763,194.853127 15.3161407,190.858662 C16.5011549,185.300877 16.6015798,179.601531 16.6484448,173.896031 C16.6685297,170.954036 16.0726752,168.319782 14.6064712,165.999422 C12.4305977,162.546579 10.8572738,158.632125 9.67895467,154.366848 C8.74165534,150.93247 7.56333617,147.578103 6.21764212,144.383762 C3.33209915,137.527314 2.21403494,129.870742 0.419776204,122.534219 C-0.263113314,119.758404 -0.0890434372,116.939506 0.761220963,114.16369 C1.45750047,111.917188 2.34123985,109.541435 2.34793484,107.221075 C2.37471483,102.900405 3.23836922,99.1582863 5.27364778,95.9331708 C6.81349669,93.5081793 6.43188196,90.5415654 6.90053163,87.8211435 C7.25536638,85.7777497 8.52741549,83.9620834 9.97353447,83.8389874 C13.9436667,83.5066282 17.9338839,82.9219221 21.8839311,83.1804238 C25.2113437,83.3958418 27.601457,80.6569555 30.487,79.5552462 C31.1564995,79.2967445 31.7322691,77.770354 32.0134589,76.6686446 C33.325678,71.5355409 33.4863579,66.5993907 31.8193041,61.2816429 C29.4693607,53.7912505 27.7487469,45.9438796 25.8339783,38.2196048 C25.1376988,35.4191705 25.0774438,32.4279373 26.3561879,29.9598623 C28.1906166,26.3900779 28.6324863,22.586411 28.5588414,18.388837 C28.5119764,15.6930343 30.0919953,14.0373929 31.892949,13.0957084 C32.7365184,12.6587175 33.7005977,12.6956463 34.5843371,12.3755967 C35.3810415,12.0863211 36.144271,11.593937 36.9476704,11.1692558 C36.2580859,9.5751624 35.5283314,8.28265426 35.1199367,6.8178117 C34.8186619,5.72225717 34.785187,4.1712474 35.7224863,3.52499333 C37.53683,2.26325919 39.049899,0.0167569412 41.5672172,1.00152505 C42.9463862,1.53699271 44.5598801,1.01998945 46.072949,0.964596246 C47.9006827,0.896893439 49.8087564,0.330651776 51.5360652,0.835345432 C60.9425335,3.56192213 70.4427318,2.3248072 79.9094551,2.49714162 C92.4692663,2.73102404 105.035772,2.82950085 117.595584,3.15570529 C120.949776,3.2418725 124.297274,3.94351978 127.644771,4.35589142 C129.164535,4.54053544 130.690994,4.84212068 132.217453,4.88520428 C142.326896,5.18063471 152.436339,5.60531596 162.545782,5.65455437 C193.175385,5.80842438 223.811684,5.77765038 254.441287,5.90074639 C259.951268,5.9192108 265.467944,6.36235644 270.977925,6.54700047 C275.256027,6.69471568 279.547519,6.77472809 283.832316,6.8547405 C285.988105,6.8916693 288.197453,6.59008407 289.114668,10.2214165 C289.235178,10.7199553 290.092137,11.1261722 290.621042,11.1569462 C292.448775,11.2738874 294.276509,11.2061846 295.990428,11.2061846 C296.285008,10.6891813 296.512637,10.4122153 296.619757,10.0675465 C297.095102,8.51653668 297.650787,6.97168171 299.110296,7.02092012 C305.524101,7.25480254 311.937907,7.57485218 318.331627,7.86412781 C318.351712,10.9846118 318.954262,12.0247731 320.353516,11.717033 C320.65479,11.6493302 320.996235,11.7539618 321.264035,11.6000918 C325.053402,9.45206639 329.043619,9.82750923 333.027142,9.74749682 C347.749436,9.46437599 362.438256,10.6584073 377.106991,11.6308658 C385.997944,12.2217267 394.855423,12.3694419 403.739682,12.1601787 C412.623941,11.9570703 421.508199,12.2771199 430.392458,12.2586555 C437.134318,12.2463459 443.882873,11.7601166 450.611344,12.0370827 C462.85649,12.5417763 475.094941,11.6000918 487.333393,11.9262963 C496.210957,12.1601787 505.108605,11.9632251 513.986169,11.7724262 C525.930041,11.5139246 537.867217,11.2985066 549.811089,12.0678567 C555.923619,12.4679187 562.06293,12.1540239 568.195546,12.1663335 C604.36191,12.2709651 640.52158,12.3694419 676.681249,12.4863831 C678.522373,12.4925379 680.370192,12.4494543 682.197925,12.7325752 C689.83022,13.9142969 697.4826,13.1141728 705.121589,12.9110644 C708.221372,12.8248972 711.254205,12.8187424 714.106273,14.6405634 C716.134856,15.9330715 718.33751,15.9823099 720.426348,15.5760931 C726.244299,14.4497645 732.00869,15.329901 737.759691,16.1607991 C743.236197,16.9609232 748.659144,17.4286881 754.048615,15.5884027 C753.379115,14.0250833 752.093676,14.1235601 750.955527,13.8773681 C749.462543,13.5511636 747.922694,13.4649964 746.436405,13.0403152 C745.93428,12.8926 745.418766,12.1294047 745.144271,11.470841 C744.869776,10.8061225 744.675621,9.80904483 744.849691,9.16279076 C745.003676,8.6273231 745.800381,7.98106902 746.222165,8.07339103 C750.145432,8.91044393 754.04192,9.97522445 757.965187,10.8245869 C765.811721,12.5356215 773.685036,14.0620121 781.498095,16.1054059 C783.285659,16.5731708 785.140173,16.7885888 786.967907,16.8255176 C800.444932,17.1086384 813.915263,17.4102237 827.378898,17.5087005 C835.948492,17.5764033 844.518086,17.3179017 853.08768,17.2009604 C855.899578,17.1640316 858.597661,17.6687253 860.934214,19.9829304 C859.742505,19.6321067 858.550796,19.0166266 857.359087,18.9796978 C851.239861,18.7950538 845.113941,18.727351 838.994715,18.6842674 C829.815876,18.6104098 820.630343,18.5303974 811.451504,18.5857906 C807.782647,18.6104098 804.120484,18.9550786 800.458322,19.2812831 C800.183827,19.3059023 799.889247,20.272206 799.741958,20.8630669 C799.695093,21.0354013 800.090097,21.6201073 800.331117,21.6755005 C802.69445,22.2294326 805.064479,22.7156619 808.900711,23.5404051 C804.073619,23.6819656 800.719427,23.7496684 797.365234,23.8973836 C794.921561,24.0020152 792.471193,24.2051236 790.027519,24.4205416 C789.779805,24.4451609 789.552175,24.8759969 789.311155,25.1160341 C789.62582,25.6084182 789.907009,26.4700903 790.261844,26.5254835 C797.244724,27.7010504 804.200824,29.1905122 811.257349,29.4674782 C813.386358,29.5474906 815.602401,29.6090386 817.62429,30.3906983 C823.007066,32.4648661 828.483572,32.7602966 834.000248,32.7849158 C839.791419,32.8156898 845.589285,32.7972254 851.320201,31.510872 C852.69937,31.1969772 853.281835,29.812147 853.616585,28.1688153 C854.018284,26.199279 853.603195,24.8021393 852.32445,24.1866592 C851.293421,23.6881204 850.208832,23.3619159 848.956868,22.8879963 C851.949531,22.4817794 854.707869,22.2663614 857.426037,21.6631909 C858.570881,21.4108441 859.621995,20.3522184 860.71328,19.6567259 C861.255574,19.2935927 861.784479,18.6534934 862.340163,18.6104098 C864.516037,18.4626946 866.5714,19.2074255 868.419219,20.7276612 C869.744828,21.817061 870.782552,23.2018911 870.809332,25.553025 C870.849502,29.1720478 873.025376,30.2737571 875.047264,31.0123332 C877.082543,31.7570641 879.265111,31.8309217 881.387425,32.1263521 C882.599219,32.2863769 883.831098,32.2679125 885.049587,32.3848537 C886.408671,32.5202593 886.810371,33.332693 886.837151,35.8192325 C886.863931,37.9364839 886.489011,38.398094 884.694753,38.9027877 C883.596773,39.2105277 882.237689,38.3303912 881.4209,40.1152834 C881.59497,40.3368562 881.75565,40.7246087 881.94311,40.7430731 C884.982637,41.0323487 888.022165,41.2600763 891.068388,41.5247327 C893.190702,41.7155316 895.326405,41.8386276 897.435329,42.1894512 C898.754243,42.4048692 899.544252,43.802009 900.046377,45.3099352 C900.588671,46.9286477 899.979427,49.6552244 898.834583,50.7569338 C897.863808,51.6986183 896.852864,52.849566 895.7348,53.18808 C893.625876,53.8158697 891.637463,54.702161 889.722694,56.031598 C888.504205,56.8809604 887.968605,58.0749918 888.00208,59.8352648 C886.247992,61.4170485 887.038001,62.4387455 888.01547,64.4267461 C889.588794,67.6580164 889.869984,68.6550942 891.711108,67.8795893 C892.514507,67.5349204 893.257652,66.7532607 893.913761,65.9839107 C894.482836,65.3191922 895.11886,64.9745233 895.40005,65.756183 C896.089635,67.6333972 897.006849,67.8980537 898.312373,67.0671556 C902.202165,64.6052353 904.518634,64.4513653 906.353062,68.0457689 C907.959861,71.2031816 910.450399,72.3418198 912.445508,74.526774 C912.010333,75.3268981 911.555074,75.9239138 911.307359,76.6501802 C910.15582,80.0599398 908.234356,81.4940084 905.435848,81.0200887 C904.880163,80.9277667 904.284309,81.3278288 903.467519,81.567866 C905.161353,82.5895629 906.694507,83.482009 908.200881,84.4667771 C908.374951,84.5837183 908.468681,85.211508 908.421816,85.5623316 C908.381646,85.9008457 908.133931,86.4363133 907.939776,86.4609325 C905.837548,86.7317438 903.721929,86.8302206 901.633091,87.1995086 C901.177831,87.279521 900.481551,88.2396699 900.461466,88.8182212 C900.394517,91.3355347 900.099937,93.5204889 898.479748,95.2622975 C897.569229,96.2532204 897.026934,97.841159 896.277094,99.1213575 C895.05191,101.21399 894.99835,103.546659 895.259455,106.057818 C895.540645,108.796704 896.899729,111.110909 896.323959,114.292941 C895.8687,116.871803 895.37327,118.847494 893.565621,120.090763 C893.063497,120.435432 892.701967,121.161699 892.219927,121.789488 C892.454252,124.516065 892.802392,127.30419 892.896122,130.104624 C892.949682,131.686408 892.722052,133.348204 892.387302,134.886904 C891.938737,136.917989 890.974658,138.555166 889.287519,138.899834 C886.602826,139.447612 883.904743,140.198497 881.199965,140.192342 C877.263308,140.192342 873.319956,139.718423 869.396688,139.182955 C868.251844,139.02293 867.02666,138.210497 866.102751,137.250348 C864.683412,135.767041 863.498398,133.895981 862.212958,132.184947 C862.166093,131.32943 862.326773,131.230953 862.681608,131.92029 C862.694998,131.938755 862.387028,132.24034 862.226348,132.412674 C859.113176,130.720104 856.000003,129.101392 852.68598,128.178172 C851.025621,127.710407 849.700012,128.448983 848.280673,129.187559 C846.606924,130.061541 845.9709,131.809504 846.057935,133.969839 C846.11819,135.477765 846.539975,136.961072 846.827859,138.622868 C845.94412,138.862906 845.060381,139.287587 844.169946,139.318361 C840.802364,139.435302 837.434781,139.392218 834.067198,139.478386 C833.270494,139.49685 832.922354,140.167723 833.156679,141.097098 C833.230324,141.429457 833.498124,141.718733 833.719059,141.946461 C834.355083,142.592715 835.948492,142.463464 835.627132,143.608257 C834.883988,146.15019 836.089087,147.442698 837.012996,148.90754 C838.023941,150.507788 839.436585,151.283293 841.009908,151.627962 C855.812543,154.853078 870.615178,158.078193 885.411117,161.377166 C887.473176,161.838776 889.762864,160.860163 891.570513,162.95895 C891.744583,163.168213 891.751278,163.759074 891.697718,164.128362 C891.644158,164.485341 891.456698,164.873093 891.235763,165.100821 C891.021523,165.328548 890.639908,165.58705 890.439059,165.482418 C886.442146,163.322083 882.840239,165.303929 878.789767,167.014964 C880.222496,168.098209 881.226745,168.867559 882.244384,169.636909 C881.481155,171.815708 879.586471,170.812476 878.481797,172.006507 C878.675952,173.028204 879.030787,174.062211 878.977227,175.065443 C878.957142,175.477815 878.066707,175.810174 877.564583,176.185617 C875.207944,178.001283 872.837916,179.810794 870.487973,181.657235 C870.240258,181.854188 869.905508,182.291179 869.925593,182.580455 C869.992543,183.731403 869.898813,185.485521 870.394243,185.897892 C872.523251,187.688939 874.987009,187.824345 877.457463,187.442747 C878.408152,187.288877 879.445876,185.947131 879.439181,183.965285 C879.432486,181.478745 880.296141,180.130844 881.896245,179.570757 C883.067869,179.16454 884.360003,179.392268 885.504847,178.930658 C886.308246,178.604454 887.319191,177.79202 887.607076,176.85649 C888.343525,174.449963 889.461589,174.209926 891.061693,174.960812 C891.269238,175.053134 891.630768,174.708465 891.871788,174.486892 C894.516311,172.043436 897.060409,172.695845 899.832137,175.102372 C900.160192,179.232243 900.515026,183.639081 900.863166,188.039763 L900.970286,187.775107 Z" id="Fill-1" fill="#003549" mask="url(#mask-3)"></path>
            </g>
        </g>
    </g>
</svg>